<svg viewBox="0 0 194.9 127.48" xmlns="http://www.w3.org/2000/svg"><path d="m140.4 56.8h24.5a2.65 2.65 0 0 0 2.6-2.6 2.92 2.92 0 0 0 -.2-.9l-6.5-16.5a4.87 4.87 0 0 0 -4.7-3.2h-15.2a4.23 4.23 0 0 0 -4.2 4.2v15.2a3.65 3.65 0 0 0 3.7 3.8zm-1.8-19a2.24 2.24 0 0 1 2.3-2.2h15.2a3.2 3.2 0 0 1 2.9 1.9l6.5 16.5a.66.66 0 0 1 -.1.6.37.37 0 0 1 -.5.2h-24.5a1.79 1.79 0 0 1 -1.8-1.8z" transform="translate(-2.6 -1.3)"/><path d="m196 81.2-8.8-6.4a1.79 1.79 0 0 1 -.5-.7l-15-39.6c-3-11.2-16.8-13.3-18.4-13.5h-27.5v-13a6.7 6.7 0 0 0 -6.7-6.7h-109.8a6.7 6.7 0 0 0 -6.7 6.7v101.5a6.7 6.7 0 0 0 6.7 6.7h16.4a14 14 0 0 0 27.8 0h84.4a14 14 0 0 0 27.9-.6l28.2.2a3.46 3.46 0 0 0 3.5-3.4v-28.4a3.93 3.93 0 0 0 -1.5-2.8zm-186.7-77.8h110a4.69 4.69 0 0 1 4.7 4.7v13h-119.3v-13.1a4.59 4.59 0 0 1 4.6-4.6zm-4.6 106.1v-6.3h27.8a14.26 14.26 0 0 0 -6.8 11h-16.4a4.61 4.61 0 0 1 -4.6-4.7zm34.9 17.7a12 12 0 1 1 12-12 12 12 0 0 1 -12 12zm13.9-13a14 14 0 0 0 -13.9-13h-34.9v-78.2h119.3v91.1zm72.5-91.1h27.1c1.4.2 14 2.1 16.7 12.2l15 39.7a3.77 3.77 0 0 0 1.2 1.6l7.3 5.3h-7.4v2h9.5v17.3h-43.6a14 14 0 0 0 -13.9 12.9h-11.9zm25.8 104.1a12 12 0 1 1 12-12 12 12 0 0 1 -12 12zm43.2-13.9a1.28 1.28 0 0 1 -1 .4l-28.3-.2a13.87 13.87 0 0 0 -6.7-10.3h36.4v9a1.67 1.67 0 0 1 -.4 1.1z" transform="translate(-2.6 -1.3)"/><path d="m61.7 99.9h48.6v2h-48.6z"/><path d="m66.2 44a17.93 17.93 0 1 0 17.93 17.9 17.93 17.93 0 0 0 -17.93-17.9zm0 33.65a15.72 15.72 0 1 1 15.72-15.75 15.72 15.72 0 0 1 -15.72 15.72z" transform="translate(-2.6 -1.3)"/><path d="m66 63.13a7.72 7.72 0 0 0 1-4.13 9.26 9.26 0 0 0 -.63-4.38 3.21 3.21 0 0 0 -2-1.62 11.75 11.75 0 0 0 -3.25-.33q-1.82 0-2 0a1.17 1.17 0 0 0 -1 .93c-.12 1.5-.12 5.85-.12 13.11 0 2.79 0 4.24.07 4.34a1.29 1.29 0 0 0 1.33.83 1.44 1.44 0 0 0 1.45-.67 8.21 8.21 0 0 0 .15-3.43c-.12-1.69 0-2.72.5-3.06 2.23.01 3.75-.51 4.5-1.59zm-2.6-7.4c.27.25.41 1.18.41 2.78v2c-.08.69-.28 1.12-.67 1.3a2 2 0 0 1 -1.65 0c-.39-.26-.54-1-.54-2.4 0-.12 0-.5 0-1.14 0-.48 0-.85 0-1.13 0-.83.22-1.35.52-1.56a1.78 1.78 0 0 1 1-.1 1.34 1.34 0 0 1 .97.25z" transform="translate(-2.6 -1.3)"/><circle cx="74" cy="53.15" r="1.56"/><path d="m69.71 57.5a4 4 0 0 0 -.71 2.74 5.27 5.27 0 0 0 1.67 3.3 28.36 28.36 0 0 1 2.33 2.46 3 3 0 0 1 .33 1.29 1.27 1.27 0 0 1 -.45 1.22 1 1 0 0 1 -1.48-.23 2 2 0 0 1 -.4-1.66 1.39 1.39 0 0 0 -1-.29 1.52 1.52 0 0 0 -1 .26 3.78 3.78 0 0 0 .75 3.16 3.34 3.34 0 0 0 2.9.94 2.83 2.83 0 0 0 2.22-1.19 4.11 4.11 0 0 0 .61-2.72 5.19 5.19 0 0 0 -1.65-3.19 20.74 20.74 0 0 1 -2.24-2.44 2.86 2.86 0 0 1 -.36-1.43c0-.66.17-1.07.57-1.24a1 1 0 0 1 1.31.27 2.15 2.15 0 0 1 .33 1.42 2.47 2.47 0 0 0 2 0 4.33 4.33 0 0 0 -.78-2.91 3.15 3.15 0 0 0 -2.64-.9 3.07 3.07 0 0 0 -2.31 1.14z" transform="translate(-2.6 -1.3)"/></svg>