<svg xmlns="http://www.w3.org/2000/svg" viewBox="0 0 750 500"><g id="freepik--background-complete--inject-2"><path d="M140.53,66.84A36.84,36.84,0,1,1,98.79,35.77,36.81,36.81,0,0,1,140.53,66.84Z" style="fill:#f5f5f5"></path><path d="M131.85,68.11a28.07,28.07,0,1,1-31.8-23.68A28,28,0,0,1,131.85,68.11Z" style="fill:#ebebeb"></path><path d="M131.72,67.24c-.17,0-.46-1.18-1.22-3.24a29.76,29.76,0,0,0-4.44-8,29.1,29.1,0,0,0-4.41-4.51,28.2,28.2,0,0,0-6.14-3.79,27.7,27.7,0,0,0-7.63-2.2,26.42,26.42,0,0,0-4.2-.24,26.78,26.78,0,0,0-8.5,1.51,26.13,26.13,0,0,0-3.86,1.67,27,27,0,0,0-3.44,2.16,26.19,26.19,0,0,0-3,2.53,28.47,28.47,0,0,0-4.45,5.67,28.73,28.73,0,0,0-4,14.84c0,2.2.13,3.43,0,3.46s-.54-1.16-.8-3.41a26,26,0,0,1,.77-9.56,28.82,28.82,0,0,1,2.5-6.21,28.24,28.24,0,0,1,4.6-6.18,26.4,26.4,0,0,1,3.14-2.78,27.57,27.57,0,0,1,3.68-2.37,28.24,28.24,0,0,1,4.15-1.84A31.55,31.55,0,0,1,99,43.51a30.6,30.6,0,0,1,4.65-.44,28.79,28.79,0,0,1,8.8,1.26,26.79,26.79,0,0,1,3.9,1.53,28,28,0,0,1,10.93,9.19,25.88,25.88,0,0,1,4,8.71C131.83,66,131.84,67.21,131.72,67.24Z" style="fill:#e0e0e0"></path><path d="M109.62,88.25l.78,4.83-4.31.69-.75-4.7c-4.31.43-8.62-.25-11.29-1.73l1.53-5.64a17.7,17.7,0,0,0,8.85,1.73l-1.15-7.2c-5-.4-10.57-1.14-11.56-7.3-.73-4.57,2-9,8.65-10.89l-.77-4.79,4.31-.69.75,4.7a19.7,19.7,0,0,1,9.17,1.23l-1.3,5.65a17.79,17.79,0,0,0-7-1.19l1.18,7.33c5,.35,10.48,1.11,11.45,7.18C118.92,82,116.26,86.35,109.62,88.25Zm-7.36-18.36-1-6.12c-2.2.88-2.9,2.28-2.68,3.7S100.27,69.59,102.26,69.89Zm9.08,9.2c-.24-1.51-1.62-2.12-3.58-2.48l.95,6C110.79,81.74,111.56,80.47,111.34,79.09Z" style="fill:#e0e0e0"></path><path d="M729.51,380a27.88,27.88,0,1,1-31.6-23.51A27.85,27.85,0,0,1,729.51,380Z" style="fill:#f5f5f5"></path><path d="M722.94,381a21.25,21.25,0,1,1-24.07-17.92A21.2,21.2,0,0,1,722.94,381Z" style="fill:#ebebeb"></path><path d="M722.84,380.34a12.46,12.46,0,0,1-.92-2.45,22.58,22.58,0,0,0-3.36-6.09,22.28,22.28,0,0,0-3.34-3.42,21.76,21.76,0,0,0-4.65-2.87,19.76,19.76,0,0,0-2.77-1,19.47,19.47,0,0,0-3-.64,20.9,20.9,0,0,0-3.18-.18,22.88,22.88,0,0,0-3.27.31,22,22,0,0,0-3.17.83,19.52,19.52,0,0,0-2.92,1.27,20,20,0,0,0-2.6,1.63,19.11,19.11,0,0,0-2.25,1.92,21.08,21.08,0,0,0-5.33,8.65,22.58,22.58,0,0,0-1.06,6.87,12.51,12.51,0,0,1,0,2.62,6.13,6.13,0,0,1-.61-2.58A19.68,19.68,0,0,1,681,378a22.42,22.42,0,0,1,1.89-4.7,21.84,21.84,0,0,1,3.48-4.68,21,21,0,0,1,2.38-2.1,21.64,21.64,0,0,1,5.93-3.19,23.84,23.84,0,0,1,3.42-.9,23.52,23.52,0,0,1,3.52-.33,22.73,22.73,0,0,1,3.43.22,22,22,0,0,1,3.23.73,19.79,19.79,0,0,1,3,1.16,21.47,21.47,0,0,1,4.88,3.2,20.84,20.84,0,0,1,3.39,3.76,19.42,19.42,0,0,1,3,6.59A6.14,6.14,0,0,1,722.84,380.34Z" style="fill:#e0e0e0"></path><path d="M706.12,396.25l.58,3.66-3.26.52-.57-3.56a15.63,15.63,0,0,1-8.54-1.31l1.15-4.27a13.42,13.42,0,0,0,6.7,1.31l-.87-5.45c-3.76-.3-8-.86-8.75-5.53-.55-3.46,1.49-6.83,6.55-8.24l-.58-3.63,3.26-.52.57,3.56a14.82,14.82,0,0,1,6.94.93l-1,4.27a13.58,13.58,0,0,0-5.26-.89l.89,5.54c3.75.27,7.93.84,8.67,5.44C713.15,391.48,711.14,394.81,706.12,396.25Zm-5.58-13.9-.74-4.63c-1.67.67-2.2,1.72-2,2.8S699,382.12,700.54,382.35Zm6.88,7c-.19-1.15-1.23-1.61-2.71-1.88l.72,4.5C707,391.32,707.58,390.36,707.42,389.32Z" style="fill:#e0e0e0"></path><path d="M105.49,368.57a36.87,36.87,0,1,1-41.78-31.1A36.83,36.83,0,0,1,105.49,368.57Z" style="fill:#f5f5f5"></path><path d="M96.8,369.83A28.09,28.09,0,1,1,65,346.13,28,28,0,0,1,96.8,369.83Z" style="fill:#ebebeb"></path><path d="M96.67,369c-.17,0-.46-1.17-1.22-3.24A29.61,29.61,0,0,0,91,357.67a28.8,28.8,0,0,0-4.42-4.52,27.82,27.82,0,0,0-6.14-3.79A25.3,25.3,0,0,0,76.79,348a25.65,25.65,0,0,0-4-.84,26.61,26.61,0,0,0-4.21-.25,27.68,27.68,0,0,0-8.51,1.51,27.27,27.27,0,0,0-3.86,1.68,26,26,0,0,0-3.44,2.16,25.34,25.34,0,0,0-3,2.53,28,28,0,0,0-4.46,5.68,28.91,28.91,0,0,0-2.59,5.76,29.73,29.73,0,0,0-1.4,9.09c0,2.2.14,3.43,0,3.46s-.54-1.16-.81-3.42a26.25,26.25,0,0,1,.78-9.56,28.18,28.18,0,0,1,7.1-12.4,27.2,27.2,0,0,1,3.14-2.78,28.28,28.28,0,0,1,3.68-2.38,28.84,28.84,0,0,1,4.16-1.84,28.68,28.68,0,0,1,9.18-1.63,29.39,29.39,0,0,1,4.53.3,29.11,29.11,0,0,1,8.18,2.49,29,29,0,0,1,6.46,4.23,28.67,28.67,0,0,1,4.48,5,25.92,25.92,0,0,1,4,8.72C96.78,367.68,96.8,368.94,96.67,369Z" style="fill:#e0e0e0"></path><path d="M74.56,390l.77,4.84-4.31.69-.75-4.71c-4.32.43-8.63-.25-11.3-1.73l1.53-5.64a17.63,17.63,0,0,0,8.86,1.72L68.21,378c-5-.4-10.58-1.14-11.57-7.31-.73-4.57,2-9,8.65-10.9L64.53,355l4.31-.69.75,4.7a19.87,19.87,0,0,1,9.18,1.23l-1.31,5.66a17.79,17.79,0,0,0-7-1.19L71.68,372c5,.36,10.49,1.11,11.46,7.19C83.86,383.68,81.2,388.09,74.56,390Zm-7.37-18.38-1-6.12c-2.2.88-2.91,2.28-2.68,3.7S65.2,371.32,67.19,371.61Zm9.09,9.21c-.24-1.51-1.63-2.12-3.59-2.48l1,6C75.73,383.48,76.5,382.21,76.28,380.82Z" style="fill:#e0e0e0"></path><path d="M392,48a23.49,23.49,0,0,1,5.72-2.48l1.18-5.66,9.56-.17,1.38,5.62a23.18,23.18,0,0,1,5.8,2.28l4.84-3.17,6.88,6.64-3,4.94a23.92,23.92,0,0,1,2.49,5.72l5.66,1.18.16,9.57-5.61,1.37a23.81,23.81,0,0,1-2.28,5.8L428,84.51l-6.64,6.88-4.94-3a23.75,23.75,0,0,1-5.72,2.49l-1.18,5.66-9.56.16-1.38-5.61a23.33,23.33,0,0,1-5.8-2.28L387.9,92,381,85.33l3-4.94a23.33,23.33,0,0,1-2.48-5.72l-5.66-1.18-.17-9.56,5.62-1.38a23.33,23.33,0,0,1,2.28-5.8l-3.17-4.83L387.07,45,392,48Zm5.1,12.74a10.27,10.27,0,1,0,14.51-.25A10.26,10.26,0,0,0,397.11,60.77Z" style="fill:#f5f5f5"></path><path d="M442.28,25.42a15,15,0,0,1,3.61-1.57l.74-3.57,6-.11.87,3.55a14.82,14.82,0,0,1,3.66,1.44l3.05-2,4.34,4.19-1.89,3.12a14.8,14.8,0,0,1,1.57,3.61l3.57.74.1,6-3.54.87A14.52,14.52,0,0,1,463,45.38l2,3-4.19,4.35-3.12-1.89A14.56,14.56,0,0,1,454,52.45L453.3,56l-6,.1-.87-3.54a14.82,14.82,0,0,1-3.66-1.44l-3.05,2L435.34,49l1.89-3.11a15,15,0,0,1-1.57-3.61l-3.57-.75-.1-6,3.54-.87A14.67,14.67,0,0,1,437,30.92l-2-3.05,4.19-4.34,3.12,1.89Zm3.22,8a6.47,6.47,0,1,0,9.15-.16A6.47,6.47,0,0,0,445.5,33.46Z" style="fill:#f5f5f5"></path><path d="M523.37,117.68a24.37,24.37,0,0,1,6-2.59l1.22-5.89,10-.18,1.44,5.85a24.19,24.19,0,0,1,6,2.38l5-3.3,7.17,6.92L557.07,126a24.09,24.09,0,0,1,2.59,6l5.9,1.23.17,10-5.84,1.44a24.74,24.74,0,0,1-2.38,6l3.3,5-6.92,7.16-5.15-3.12a24.37,24.37,0,0,1-6,2.59l-1.23,5.9-10,.17-1.43-5.85a24.38,24.38,0,0,1-6-2.37l-5,3.3-7.17-6.92,3.12-5.15a24.54,24.54,0,0,1-2.59-6l-5.89-1.23-.18-10,5.85-1.43a24.81,24.81,0,0,1,2.38-6l-3.3-5,6.92-7.17,5.15,3.12ZM528.68,131a10.69,10.69,0,1,0,15.11-.26A10.7,10.7,0,0,0,528.68,131Z" style="fill:#f5f5f5"></path><path d="M679,167.23a24.37,24.37,0,0,1,6-2.59l1.22-5.9,10-.17,1.43,5.85a23.82,23.82,0,0,1,6,2.38l5-3.3,7.17,6.92-3.12,5.14a24.54,24.54,0,0,1,2.59,6l5.89,1.23.18,10-5.85,1.44a24.74,24.74,0,0,1-2.38,6l3.3,5-6.92,7.17-5.15-3.12a24.37,24.37,0,0,1-6,2.59l-1.22,5.9-10,.17-1.43-5.85a24.19,24.19,0,0,1-6-2.38l-5,3.3-7.17-6.92,3.12-5.14a24.51,24.51,0,0,1-2.58-6l-5.9-1.23-.18-10,5.85-1.43a24.65,24.65,0,0,1,2.38-6.05l-3.3-5,6.92-7.17,5.15,3.12Zm5.31,13.27a10.69,10.69,0,1,0,15.11-.27A10.68,10.68,0,0,0,684.33,180.5Z" style="fill:#f5f5f5"></path><path d="M36.54,218.66a24.51,24.51,0,0,1,6-2.58l1.23-5.9,10-.18,1.43,5.85a24.81,24.81,0,0,1,6.05,2.38l5-3.3,7.17,6.92L70.25,227a24.37,24.37,0,0,1,2.59,6l5.89,1.22.18,10-5.85,1.43a24.58,24.58,0,0,1-2.38,6l3.3,5-6.92,7.17-5.15-3.12A24.44,24.44,0,0,1,56,263.29l-1.23,5.9-10,.18-1.44-5.85a24.58,24.58,0,0,1-6-2.38l-5,3.3-7.16-6.92,3.12-5.15a24,24,0,0,1-2.59-6l-5.9-1.22-.17-10,5.85-1.43a24.16,24.16,0,0,1,2.37-6l-3.3-5,6.92-7.17,5.15,3.12Zm5.31,13.28A10.69,10.69,0,1,0,57,231.67,10.68,10.68,0,0,0,41.85,231.94Z" style="fill:#f5f5f5"></path></g><g id="freepik--Floor--inject-2"><path d="M719.31,462.09c0,.14-154.17.26-344.29.26s-344.33-.12-344.33-.26,154.13-.26,344.33-.26S719.31,461.94,719.31,462.09Z" style="fill:#263238"></path></g><g id="freepik--Coins--inject-2"><rect x="84.02" y="376.27" width="72.99" height="14.72" transform="translate(241.02 767.27) rotate(180)" style="fill:#23C0C9"></rect><path d="M152.31,376.52c-.17,0-.32,3.19-.32,7.13s.15,7.14.32,7.14.32-3.19.32-7.14S152.49,376.52,152.31,376.52Z" style="fill:#263238"></path><path d="M145.54,376.52c-.17,0-.31,3.19-.31,7.13s.14,7.14.31,7.14.32-3.19.32-7.14S145.72,376.52,145.54,376.52Z" style="fill:#263238"></path><path d="M138.86,376.52c-.18,0-.32,3.19-.32,7.13s.14,7.14.32,7.14.31-3.19.31-7.14S139,376.52,138.86,376.52Z" style="fill:#263238"></path><path d="M132.2,376.52c-.17,0-.31,3.19-.31,7.13s.14,7.14.31,7.14.32-3.19.32-7.14S132.38,376.52,132.2,376.52Z" style="fill:#263238"></path><path d="M125.55,376.52c-.17,0-.32,3.19-.32,7.13s.15,7.14.32,7.14.32-3.19.32-7.14S125.73,376.52,125.55,376.52Z" style="fill:#263238"></path><path d="M118.9,376.52c-.18,0-.32,3.19-.32,7.13s.14,7.14.32,7.14.31-3.19.31-7.14S119.07,376.52,118.9,376.52Z" style="fill:#263238"></path><path d="M112.25,376.52c-.18,0-.32,3.19-.32,7.13s.14,7.14.32,7.14.31-3.19.31-7.14S112.42,376.52,112.25,376.52Z" style="fill:#263238"></path><path d="M105.59,376.52c-.17,0-.31,3.19-.31,7.13s.14,7.14.31,7.14.32-3.19.32-7.14S105.77,376.52,105.59,376.52Z" style="fill:#263238"></path><path d="M98.94,376.52c-.17,0-.32,3.19-.32,7.13s.15,7.14.32,7.14.32-3.19.32-7.14S99.12,376.52,98.94,376.52Z" style="fill:#263238"></path><path d="M92.29,376.52c-.18,0-.32,3.19-.32,7.13s.14,7.14.32,7.14.32-3.19.32-7.14S92.46,376.52,92.29,376.52Z" style="fill:#263238"></path><path d="M85.64,376.52c-.18,0-.32,3.19-.32,7.13s.14,7.14.32,7.14.31-3.19.31-7.14S85.81,376.52,85.64,376.52Z" style="fill:#263238"></path><g style="opacity:0.30000000000000004"><path d="M155.83,376.29a266.12,266.12,0,0,1-70.65,0Z"></path></g><path d="M84,376.32c0,.17,16.31.32,36.42.32s36.44-.15,36.44-.32-16.31-.32-36.44-.32S84,376.14,84,376.32Z" style="fill:#263238"></path><rect x="82.38" y="390.75" width="72.99" height="14.72" transform="translate(237.74 796.21) rotate(180)" style="fill:#23C0C9"></rect><path d="M150.67,391c-.17,0-.31,3.2-.31,7.14s.14,7.13.31,7.13.32-3.19.32-7.13S150.85,391,150.67,391Z" style="fill:#263238"></path><path d="M143.9,391c-.17,0-.31,3.2-.31,7.14s.14,7.13.31,7.13.32-3.19.32-7.13S144.08,391,143.9,391Z" style="fill:#263238"></path><path d="M137.22,391c-.18,0-.32,3.2-.32,7.14s.14,7.13.32,7.13.31-3.19.31-7.13S137.39,391,137.22,391Z" style="fill:#263238"></path><path d="M130.56,391c-.17,0-.31,3.2-.31,7.14s.14,7.13.31,7.13.32-3.19.32-7.13S130.74,391,130.56,391Z" style="fill:#263238"></path><path d="M123.91,391c-.17,0-.32,3.2-.32,7.14s.15,7.13.32,7.13.32-3.19.32-7.13S124.09,391,123.91,391Z" style="fill:#263238"></path><path d="M117.26,391c-.18,0-.32,3.2-.32,7.14s.14,7.13.32,7.13.32-3.19.32-7.13S117.43,391,117.26,391Z" style="fill:#263238"></path><path d="M110.61,391c-.18,0-.32,3.2-.32,7.14s.14,7.13.32,7.13.31-3.19.31-7.13S110.78,391,110.61,391Z" style="fill:#263238"></path><path d="M104,391c-.17,0-.31,3.2-.31,7.14s.14,7.13.31,7.13.32-3.19.32-7.13S104.13,391,104,391Z" style="fill:#263238"></path><path d="M97.3,391c-.17,0-.32,3.2-.32,7.14s.15,7.13.32,7.13.32-3.19.32-7.13S97.48,391,97.3,391Z" style="fill:#263238"></path><path d="M90.65,391c-.18,0-.32,3.2-.32,7.14s.14,7.13.32,7.13.32-3.19.32-7.13S90.82,391,90.65,391Z" style="fill:#263238"></path><path d="M84,391c-.18,0-.32,3.2-.32,7.14s.14,7.13.32,7.13.31-3.19.31-7.13S84.17,391,84,391Z" style="fill:#263238"></path><g style="opacity:0.30000000000000004"><path d="M154.19,390.76a266.12,266.12,0,0,1-70.65,0Z"></path></g><path d="M82.36,390.79c0,.18,16.31.32,36.43.32s36.43-.14,36.43-.32-16.31-.31-36.43-.31S82.36,390.62,82.36,390.79Z" style="fill:#263238"></path><rect x="89.31" y="404.99" width="72.99" height="14.72" transform="translate(251.6 824.7) rotate(180)" style="fill:#23C0C9"></rect><path d="M157.6,405.23c-.17,0-.31,3.2-.31,7.14s.14,7.14.31,7.14.32-3.2.32-7.14S157.78,405.23,157.6,405.23Z" style="fill:#263238"></path><path d="M150.83,405.23c-.17,0-.31,3.2-.31,7.14s.14,7.14.31,7.14.32-3.2.32-7.14S151,405.23,150.83,405.23Z" style="fill:#263238"></path><path d="M144.15,405.23c-.18,0-.32,3.2-.32,7.14s.14,7.14.32,7.14.31-3.2.31-7.14S144.32,405.23,144.15,405.23Z" style="fill:#263238"></path><path d="M137.49,405.23c-.17,0-.31,3.2-.31,7.14s.14,7.14.31,7.14.32-3.2.32-7.14S137.67,405.23,137.49,405.23Z" style="fill:#263238"></path><path d="M130.84,405.23c-.17,0-.32,3.2-.32,7.14s.15,7.14.32,7.14.32-3.2.32-7.14S131,405.23,130.84,405.23Z" style="fill:#263238"></path><path d="M124.19,405.23c-.18,0-.32,3.2-.32,7.14s.14,7.14.32,7.14.32-3.2.32-7.14S124.36,405.23,124.19,405.23Z" style="fill:#263238"></path><path d="M117.54,405.23c-.18,0-.32,3.2-.32,7.14s.14,7.14.32,7.14.31-3.2.31-7.14S117.71,405.23,117.54,405.23Z" style="fill:#263238"></path><path d="M110.88,405.23c-.17,0-.31,3.2-.31,7.14s.14,7.14.31,7.14.32-3.2.32-7.14S111.06,405.23,110.88,405.23Z" style="fill:#263238"></path><path d="M104.23,405.23c-.17,0-.32,3.2-.32,7.14s.15,7.14.32,7.14.32-3.2.32-7.14S104.41,405.23,104.23,405.23Z" style="fill:#263238"></path><path d="M97.58,405.23c-.18,0-.32,3.2-.32,7.14s.14,7.14.32,7.14.32-3.2.32-7.14S97.75,405.23,97.58,405.23Z" style="fill:#263238"></path><path d="M90.93,405.23c-.18,0-.32,3.2-.32,7.14s.14,7.14.32,7.14.31-3.2.31-7.14S91.1,405.23,90.93,405.23Z" style="fill:#263238"></path><g style="opacity:0.30000000000000004"><path d="M161.12,405a265.7,265.7,0,0,1-70.65,0Z"></path></g><path d="M89.29,405c0,.18,16.31.32,36.43.32s36.43-.14,36.43-.32-16.31-.31-36.43-.31S89.29,404.86,89.29,405Z" style="fill:#263238"></path><rect x="80.76" y="419.6" width="72.99" height="14.15" transform="translate(234.5 853.35) rotate(180)" style="fill:#23C0C9"></rect><path d="M149.05,419.83c-.17,0-.31,3.08-.31,6.87s.14,6.86.31,6.86.32-3.07.32-6.86S149.23,419.83,149.05,419.83Z" style="fill:#263238"></path><path d="M142.28,419.83c-.17,0-.31,3.08-.31,6.87s.14,6.86.31,6.86.32-3.07.32-6.86S142.46,419.83,142.28,419.83Z" style="fill:#263238"></path><path d="M135.6,419.83c-.18,0-.32,3.08-.32,6.87s.14,6.86.32,6.86.31-3.07.31-6.86S135.77,419.83,135.6,419.83Z" style="fill:#263238"></path><path d="M128.94,419.83c-.17,0-.31,3.08-.31,6.87s.14,6.86.31,6.86.32-3.07.32-6.86S129.12,419.83,128.94,419.83Z" style="fill:#263238"></path><path d="M122.29,419.83c-.17,0-.32,3.08-.32,6.87s.15,6.86.32,6.86.32-3.07.32-6.86S122.47,419.83,122.29,419.83Z" style="fill:#263238"></path><path d="M115.64,419.83c-.18,0-.32,3.08-.32,6.87s.14,6.86.32,6.86.32-3.07.32-6.86S115.81,419.83,115.64,419.83Z" style="fill:#263238"></path><path d="M109,419.83c-.18,0-.32,3.08-.32,6.87s.14,6.86.32,6.86.31-3.07.31-6.86S109.16,419.83,109,419.83Z" style="fill:#263238"></path><path d="M102.33,419.83c-.17,0-.31,3.08-.31,6.87s.14,6.86.31,6.86.32-3.07.32-6.86S102.51,419.83,102.33,419.83Z" style="fill:#263238"></path><path d="M95.68,419.83c-.17,0-.32,3.08-.32,6.87s.15,6.86.32,6.86.32-3.07.32-6.86S95.86,419.83,95.68,419.83Z" style="fill:#263238"></path><path d="M89,419.83c-.18,0-.32,3.08-.32,6.87s.14,6.86.32,6.86.32-3.07.32-6.86S89.2,419.83,89,419.83Z" style="fill:#263238"></path><path d="M82.38,419.83c-.18,0-.32,3.08-.32,6.87s.14,6.86.32,6.86.31-3.07.31-6.86S82.55,419.83,82.38,419.83Z" style="fill:#263238"></path><g style="opacity:0.30000000000000004"><path d="M152.57,419.61a208.7,208.7,0,0,1-70.65,0Z"></path></g><path d="M80.74,419.64c0,.18,16.31.32,36.43.32s36.43-.14,36.43-.32-16.31-.31-36.43-.31S80.74,419.47,80.74,419.64Z" style="fill:#263238"></path><rect x="85.45" y="433.76" width="72.99" height="14.16" transform="translate(243.89 881.68) rotate(180)" style="fill:#23C0C9"></rect><path d="M153.74,434c-.17,0-.31,3.07-.31,6.86s.14,6.86.31,6.86.32-3.07.32-6.86S153.92,434,153.74,434Z" style="fill:#263238"></path><path d="M147,434c-.18,0-.32,3.07-.32,6.86s.14,6.86.32,6.86.31-3.07.31-6.86S147.15,434,147,434Z" style="fill:#263238"></path><path d="M140.29,434c-.18,0-.32,3.07-.32,6.86s.14,6.86.32,6.86.32-3.07.32-6.86S140.46,434,140.29,434Z" style="fill:#263238"></path><path d="M133.64,434c-.18,0-.32,3.07-.32,6.86s.14,6.86.32,6.86.31-3.07.31-6.86S133.81,434,133.64,434Z" style="fill:#263238"></path><path d="M127,434c-.17,0-.31,3.07-.31,6.86s.14,6.86.31,6.86.32-3.07.32-6.86S127.16,434,127,434Z" style="fill:#263238"></path><path d="M120.33,434c-.17,0-.32,3.07-.32,6.86s.15,6.86.32,6.86.32-3.07.32-6.86S120.51,434,120.33,434Z" style="fill:#263238"></path><path d="M113.68,434c-.18,0-.32,3.07-.32,6.86s.14,6.86.32,6.86.32-3.07.32-6.86S113.85,434,113.68,434Z" style="fill:#263238"></path><path d="M107,434c-.18,0-.32,3.07-.32,6.86s.14,6.86.32,6.86.31-3.07.31-6.86S107.2,434,107,434Z" style="fill:#263238"></path><path d="M100.37,434c-.17,0-.31,3.07-.31,6.86s.14,6.86.31,6.86.32-3.07.32-6.86S100.55,434,100.37,434Z" style="fill:#263238"></path><path d="M93.72,434c-.17,0-.32,3.07-.32,6.86s.15,6.86.32,6.86.32-3.07.32-6.86S93.9,434,93.72,434Z" style="fill:#263238"></path><path d="M87.07,434c-.18,0-.32,3.07-.32,6.86s.14,6.86.32,6.86.32-3.07.32-6.86S87.24,434,87.07,434Z" style="fill:#263238"></path><g style="opacity:0.30000000000000004"><path d="M157.26,433.78a184.89,184.89,0,0,1-70.64,0Z"></path></g><path d="M85.43,433.81c0,.17,16.31.31,36.43.31s36.43-.14,36.43-.31-16.31-.32-36.43-.32S85.43,433.63,85.43,433.81Z" style="fill:#263238"></path><rect x="81.28" y="447.72" width="72.99" height="14.16" transform="translate(235.55 909.6) rotate(180)" style="fill:#23C0C9"></rect><path d="M149.57,448c-.17,0-.31,3.07-.31,6.86s.14,6.86.31,6.86.32-3.07.32-6.86S149.75,448,149.57,448Z" style="fill:#263238"></path><path d="M142.81,448c-.18,0-.32,3.07-.32,6.86s.14,6.86.32,6.86.31-3.07.31-6.86S143,448,142.81,448Z" style="fill:#263238"></path><path d="M136.12,448c-.18,0-.32,3.07-.32,6.86s.14,6.86.32,6.86.32-3.07.32-6.86S136.29,448,136.12,448Z" style="fill:#263238"></path><path d="M129.47,448c-.18,0-.32,3.07-.32,6.86s.14,6.86.32,6.86.31-3.07.31-6.86S129.64,448,129.47,448Z" style="fill:#263238"></path><path d="M122.81,448c-.17,0-.31,3.07-.31,6.86s.14,6.86.31,6.86.32-3.07.32-6.86S123,448,122.81,448Z" style="fill:#263238"></path><path d="M116.16,448c-.17,0-.32,3.07-.32,6.86s.15,6.86.32,6.86.32-3.07.32-6.86S116.34,448,116.16,448Z" style="fill:#263238"></path><path d="M109.51,448c-.18,0-.32,3.07-.32,6.86s.14,6.86.32,6.86.32-3.07.32-6.86S109.68,448,109.51,448Z" style="fill:#263238"></path><path d="M102.86,448c-.18,0-.32,3.07-.32,6.86s.14,6.86.32,6.86.31-3.07.31-6.86S103,448,102.86,448Z" style="fill:#263238"></path><path d="M96.2,448c-.17,0-.31,3.07-.31,6.86s.14,6.86.31,6.86.32-3.07.32-6.86S96.38,448,96.2,448Z" style="fill:#263238"></path><path d="M89.55,448c-.17,0-.32,3.07-.32,6.86s.15,6.86.32,6.86.32-3.07.32-6.86S89.73,448,89.55,448Z" style="fill:#263238"></path><path d="M82.9,448c-.18,0-.32,3.07-.32,6.86s.14,6.86.32,6.86.32-3.07.32-6.86S83.07,448,82.9,448Z" style="fill:#263238"></path><g style="opacity:0.30000000000000004"><path d="M153.09,447.74a208.9,208.9,0,0,1-70.64,0Z"></path></g><path d="M81.26,447.77c0,.17,16.31.31,36.43.31s36.43-.14,36.43-.31-16.31-.32-36.43-.32S81.26,447.59,81.26,447.77Z" style="fill:#263238"></path><path d="M154.27,461.88a.64.64,0,0,1,0-.24c0-.19,0-.42,0-.72,0-.66,0-1.58,0-2.75,0-2.43,0-5.91-.07-10.25v-.16h.16l4,0-.18.18c0-4.14,0-8.93,0-14.17l.22.22h-4.92v-.23c0-4.37,0-9.12,0-14v-.24h8.79l-.24.24c0-5.24,0-10.27,0-15l.23.22H155v-.21c0-5.12,0-9.75.05-13.73v-.17H157l-.16.16c0-4.56,0-8.22,0-10.77,0-1.24,0-2.21,0-2.9,0-.31,0-.55,0-.75a.72.72,0,0,1,0-.25s0,.09,0,.25,0,.44,0,.75c0,.69,0,1.66.07,2.9.05,2.55.11,6.21.19,10.77v.16h-1.95l.17-.17c0,4,0,8.61,0,13.73l-.21-.21,6.93,0h.22v.23c0,4.72,0,9.75,0,15V420H153.6l.23-.23c0,4.92,0,9.67,0,14l-.22-.22h4.91v.21c0,5.24,0,10,0,14.17v.17h-.17l-4,0,.16-.15c0,4.34-.06,7.82-.08,10.25,0,1.17,0,2.09,0,2.75,0,.3,0,.53,0,.72A1.1,1.1,0,0,1,154.27,461.88Z" style="fill:#263238"></path></g><g id="freepik--Device--inject-2"><path d="M575.8,458.08H174.46a24,24,0,0,1-24-24V158.61A17.52,17.52,0,0,1,168,141.09h415.3a16.56,16.56,0,0,1,16.56,16.56V434.06A24,24,0,0,1,575.8,458.08Z" style="fill:#e0e0e0"></path><path d="M575.8,458.08l1-.07L578,458c.49,0,1-.15,1.67-.23l1-.16,1.1-.29,1.2-.31,1.28-.47a24.43,24.43,0,0,0,2.79-1.25c.49-.25,1-.57,1.47-.87l.75-.46.74-.55a23.72,23.72,0,0,0,9.41-15.28c.07-.45.13-.9.2-1.36s.06-.93.09-1.4c.07-.94.08-1.9.07-2.88q0-3,0-6.1,0-6.3,0-13.4c0-37.9-.05-92.72-.08-160.46q0-25.41,0-53.17V160.14c0-1.22,0-2.45-.06-3.65a16.33,16.33,0,0,0-7-12.28,16,16,0,0,0-6.82-2.7c-.31,0-.61-.11-.92-.13l-.93,0c-.62,0-1.25,0-1.88,0H466.11l-291.41,0h-4.84c-.81,0-1.62,0-2.41,0l-1.19.06c-.4,0-.79.11-1.18.17a6.56,6.56,0,0,0-1.17.24c-.38.1-.77.19-1.15.3a19,19,0,0,0-2.2.88,16.63,16.63,0,0,0-4,2.6,17.65,17.65,0,0,0-3.11,3.57,18.56,18.56,0,0,0-2,4.27,17.87,17.87,0,0,0-.76,4.65c-.05,1.58,0,3.19,0,4.78q0,19.16,0,38v74.35c0,48.75,0,95.77,0,140.56q0,8.4,0,16.69c0,1.39.05,2.75.15,4.11l.31,2c.13.66.32,1.32.49,2a24,24,0,0,0,3.53,7.27,23.56,23.56,0,0,0,12.94,9c.65.15,1.28.37,1.94.47l2,.3c1.33.07,2.65.15,4,.13H245.7l110.81,0L517,458l43.63,0,11.34,0,3.87,0-3.87,0-11.34,0-43.63,0-160.45.08-110.81,0H176c-1.33,0-2.68-.06-4-.13l-2-.31c-.67-.1-1.32-.32-2-.47a24.09,24.09,0,0,1-13.18-9.21,24.58,24.58,0,0,1-3.61-7.42c-.16-.67-.36-1.34-.5-2l-.31-2.06c-.1-1.38-.17-2.78-.15-4.16V415.83c0-44.79,0-91.81,0-140.56V162.89c0-1.6,0-3.18,0-4.79a18.1,18.1,0,0,1,.78-4.79,18.79,18.79,0,0,1,2.08-4.39,17.76,17.76,0,0,1,3.19-3.67,17.14,17.14,0,0,1,4.07-2.67,20.33,20.33,0,0,1,2.27-.92l1.19-.31a8,8,0,0,1,1.2-.24c.4-.06.8-.13,1.21-.18l1.22-.06c.82-.05,1.62,0,2.43,0h4.84l291.41,0H582c.63,0,1.25,0,1.89,0l1,0c.31,0,.62.09.94.14a16.46,16.46,0,0,1,7,2.77A16.75,16.75,0,0,1,600,156.46c.09,1.25,0,2.46.06,3.68v39.17q0,27.74,0,53.17c0,67.74-.06,122.56-.08,160.46q0,7.1,0,13.4v6.1c0,1,0,1.94-.07,2.89,0,.47,0,.95-.1,1.41l-.21,1.36a23.72,23.72,0,0,1-3.7,9.34,24.29,24.29,0,0,1-5.79,6l-.74.55-.76.46c-.51.3-1,.62-1.48.87a26.26,26.26,0,0,1-2.8,1.24L583,457l-1.21.31-1.1.28-1,.16c-.64.08-1.19.2-1.67.22l-1.21.05Z" style="fill:#263238"></path><path d="M599.35,462.9H154.87a23.21,23.21,0,0,1-23.22-23.22v-3.62a.89.89,0,0,1,.89-.89H617.62a.89.89,0,0,1,.89.89v7.68A19.16,19.16,0,0,1,599.35,462.9Z" style="fill:#e0e0e0"></path><path d="M599.35,462.9l.65,0a15.27,15.27,0,0,0,1.94-.18,19.12,19.12,0,0,0,11.49-6.07,19,19,0,0,0,3.6-5.7,19.83,19.83,0,0,0,1.4-7.73c0-1.41,0-2.88,0-4.38v-2.3c0-.39,0-.78-.26-1s-.66-.21-1.06-.22l-108.25.08-357.14.07H132.58a.65.65,0,0,0-.29.06.62.62,0,0,0-.37.42,4.29,4.29,0,0,0,0,.75v1.62c0,1.08,0,2.14.09,3.21a22.36,22.36,0,0,0,1.37,6.2,23.48,23.48,0,0,0,1.29,2.9,24.71,24.71,0,0,0,1.71,2.67,23,23,0,0,0,9.83,7.7,24.21,24.21,0,0,0,6.07,1.56c2.08.2,4.19.16,6.3.16h132.3l160.56.06,108.25.08,29.42,0,7.66,0,2.61,0-2.61,0-7.66,0-29.42.05-108.25.08-160.56.05-94.83,0H158.55c-2.1,0-4.22,0-6.35-.16A24.77,24.77,0,0,1,146,461.4a23.74,23.74,0,0,1-10-7.86,25.84,25.84,0,0,1-1.75-2.73,24.56,24.56,0,0,1-1.31-3,22.49,22.49,0,0,1-1.4-6.34c-.07-1.08-.11-2.17-.09-3.24v-1.62a3.81,3.81,0,0,1,0-.87,1.13,1.13,0,0,1,.65-.76,1.21,1.21,0,0,1,.49-.09h19.13l357.14.07,108.25.08h.6a1,1,0,0,1,.59.26,1,1,0,0,1,.3.56c0,.23,0,.4,0,.6,0,.78,0,1.54,0,2.3v4.38a20,20,0,0,1-1.43,7.79,19.23,19.23,0,0,1-3.65,5.73,18.28,18.28,0,0,1-4.38,3.55,18.06,18.06,0,0,1-7.19,2.48,14.1,14.1,0,0,1-2,.15Z" style="fill:#263238"></path><rect x="168.86" y="160.44" width="411.28" height="259.66" rx="5" style="fill:#455a64"></rect><path d="M575.14,420.1s.29,0,.86-.09a5,5,0,0,0,2.3-1.07,5,5,0,0,0,1.79-3.67v-5.86c0-8.89,0-22-.05-38.85,0-33.74,0-82.55-.08-142.87q0-22.62,0-47.34,0-6.16,0-12.47v-1.57a11.26,11.26,0,0,0-.05-1.55,4.81,4.81,0,0,0-4-4.06,9.93,9.93,0,0,0-1.56-.06H546.58l-113.23,0-259.46,0a4.79,4.79,0,0,0-3.62,1.64,4.69,4.69,0,0,0-1,1.78,6.69,6.69,0,0,0-.19,2.07v59.55q0,33.61,0,66.2v63.9q0,15.65,0,31v26.53a9,9,0,0,0,.37,3.61,4.77,4.77,0,0,0,2.42,2.5,4.83,4.83,0,0,0,1.71.42c.6,0,1.24,0,1.85,0H281.23l98.66,0,142.86.08,38.84.05,10.1,0c2.28,0,3.45,0,3.45,0l-3.45,0-10.1,0-38.84.05-142.86.08-98.66,0H175.44c-.62,0-1.23,0-1.87,0a5.09,5.09,0,0,1-1.88-.46,5.29,5.29,0,0,1-2.66-2.73,5.21,5.21,0,0,1-.39-1.91V386.8q0-15.32,0-31v-63.9q0-32.55,0-66.2V166.18a7.28,7.28,0,0,1,.21-2.21,5.1,5.1,0,0,1,1.08-2,5.23,5.23,0,0,1,4-1.82l259.46,0,113.23,0h27.74a11.29,11.29,0,0,1,1.63.07,5.21,5.21,0,0,1,2.89,1.49,5.13,5.13,0,0,1,1.43,2.9,11,11,0,0,1,.06,1.61v14q0,24.71,0,47.34c0,60.32-.06,109.13-.08,142.87,0,16.87,0,30,0,38.85,0,2.22,0,4.18,0,5.86a5,5,0,0,1-1.84,3.71,5,5,0,0,1-2.33,1,3.89,3.89,0,0,1-.65.07Z" style="fill:#263238"></path><polygon points="330.83 434.63 336.87 444.88 421.88 444.88 427.49 434.63 330.83 434.63" style="fill:#263238"></polygon><path d="M378.45,151.65a3.37,3.37,0,1,1-3.37-3.37A3.37,3.37,0,0,1,378.45,151.65Z" style="fill:#263238"></path><path d="M557,183.56H541.21a1.12,1.12,0,0,1-1.13-1.13V174.6a1.12,1.12,0,0,1,1.12-1.12H557a.25.25,0,0,1,.2.09.27.27,0,0,1,.09.2v2.58h1.68a.29.29,0,0,1,.29.29v3.78a.29.29,0,0,1-.29.28h-1.68v2.59A.29.29,0,0,1,557,183.56Zm-.29-9.51H541.2a.54.54,0,0,0-.55.55v7.83a.56.56,0,0,0,.56.56h15.46v-2.58a.29.29,0,0,1,.29-.29h1.69v-3.2H557a.29.29,0,0,1-.29-.29Z" style="fill:#263238"></path><path d="M541.94,180.74V176.3a1,1,0,0,1,1-1h7.41a1,1,0,0,1,1,1v4.44a1,1,0,0,1-1,1H542.9A1,1,0,0,1,541.94,180.74Z" style="fill:#263238"></path></g><g id="freepik--Tab--inject-2"><path d="M292,72.93H508.12A9.05,9.05,0,0,1,517.17,82V380.65A8.38,8.38,0,0,1,508.8,389H292.08a7.58,7.58,0,0,1-7.58-7.58v-301A7.54,7.54,0,0,1,292,72.93Z" style="fill:#fff"></path><path d="M292,72.93H508.12A9.05,9.05,0,0,1,517.17,82v19.76a0,0,0,0,1,0,0H284.5a0,0,0,0,1,0,0V80.47A7.54,7.54,0,0,1,292,72.93Z" style="fill:#e0e0e0"></path><ellipse cx="300.22" cy="86.81" rx="3.82" ry="3.63" style="fill:#fff"></ellipse><ellipse cx="313.1" cy="86.81" rx="3.82" ry="3.63" style="fill:#fff"></ellipse><path d="M329.81,86.81A3.82,3.82,0,1,1,326,83.18,3.73,3.73,0,0,1,329.81,86.81Z" style="fill:#fff"></path><rect x="319.3" y="153.22" width="9.37" height="68.52" style="fill:#23C0C9"></rect><rect x="337.39" y="176.49" width="9.37" height="45.25" style="fill:#23C0C9"></rect><rect x="355.47" y="161.73" width="9.37" height="60.35" style="fill:#23C0C9"></rect><rect x="373.55" y="155.86" width="9.37" height="65.87" style="fill:#23C0C9"></rect><rect x="391.63" y="177.88" width="9.37" height="43.85" style="fill:#23C0C9"></rect><rect x="409.72" y="186.48" width="9.37" height="35.25" style="fill:#23C0C9"></rect><rect x="427.8" y="160.25" width="9.37" height="61.48" style="fill:#23C0C9"></rect><rect x="445.88" y="171.33" width="9.37" height="50.4" style="fill:#23C0C9"></rect><rect x="463.96" y="162.48" width="9.37" height="59.26" style="fill:#23C0C9"></rect><rect x="482.05" y="181.36" width="9.37" height="40.37" style="fill:#23C0C9"></rect><g style="opacity:0.30000000000000004"><rect x="337.39" y="176.49" width="9.37" height="45.25" style="fill:#fff"></rect></g><g style="opacity:0.30000000000000004"><rect x="373.55" y="155.86" width="9.37" height="65.87" style="fill:#fff"></rect></g><g style="opacity:0.30000000000000004"><rect x="409.72" y="186.48" width="9.37" height="35.25" style="fill:#fff"></rect></g><g style="opacity:0.30000000000000004"><rect x="445.88" y="171.33" width="9.37" height="50.4" style="fill:#fff"></rect></g><g style="opacity:0.30000000000000004"><rect x="482.05" y="181.36" width="9.37" height="40.37" style="fill:#fff"></rect></g><path d="M309.64,155.86s0,.11,0,.31,0,.52,0,.91c0,.82,0,2,0,3.56,0,3.13,0,7.68.06,13.47,0,11.62.05,28.17.09,48l-.22-.23,62.13,0,90.78.08,27.5.08,7.48.05,2,0c.44,0,.66,0,.66,0l-.66,0-2,0-7.48.05-27.5.09-90.78.07-62.13,0h-.23v-.23c0-19.8.07-36.35.09-48,0-5.79.05-10.34.07-13.47,0-1.55,0-2.74,0-3.56,0-.39,0-.69,0-.91A1.92,1.92,0,0,1,309.64,155.86Z" style="fill:#263238"></path><rect x="310.13" y="130.01" width="55.6" height="5.76" rx="2.56" style="fill:#e0e0e0"></rect><rect x="304.91" y="245.94" width="182.89" height="5.76" rx="2.56" style="fill:#e0e0e0"></rect><rect x="304.91" y="277.97" width="182.89" height="5.76" rx="2.56" style="fill:#e0e0e0"></rect><rect x="304.91" y="261.88" width="99.28" height="5.76" rx="2.56" style="fill:#e0e0e0"></rect><rect x="415.07" y="261.88" width="71.54" height="5.76" rx="2.56" style="fill:#e0e0e0"></rect><rect x="306.11" y="294.05" width="71.54" height="5.76" rx="2.56" style="fill:#e0e0e0"></rect><path d="M508.8,389a9.36,9.36,0,0,0,2.73-.49,8.42,8.42,0,0,0,5.31-5.78,9.49,9.49,0,0,0,.27-2.82v-3.19c0-2.22,0-4.66,0-7.3q0-7.92,0-18.22c0-27.42-.05-67.09-.08-116.1,0-24.51,0-51.36,0-80.18q0-21.62,0-44.67V84c0-1,0-2-.06-3a8.94,8.94,0,0,0-2.45-5.17,8.85,8.85,0,0,0-5.14-2.57,24.58,24.58,0,0,0-3-.09h-3l-210.86,0A7.28,7.28,0,0,0,285,78.83a14.86,14.86,0,0,0-.19,3.42q0,7,0,13.9v81.32c0,35.27,0,69.29,0,101.7s0,63.21,0,92c0,3.6,0,7.19,0,10.71a7.3,7.3,0,0,0,2,4.61,7.41,7.41,0,0,0,4.46,2.24c.83.08,1.71.05,2.58.06h17.86l38.47,0,116.1.08,31.57.05,8.21,0c1.85,0,2.8,0,2.8,0l-2.8,0-8.21,0-31.57,0-116.1.09H293.79c-.87,0-1.73,0-2.63-.06a7.78,7.78,0,0,1-6.84-7.24c-.05-3.56,0-7.12,0-10.73,0-28.82,0-59.62,0-92s0-66.43,0-101.7v-53.8q0-13.67,0-27.52V80.51a8.93,8.93,0,0,1,.21-1.79,7.83,7.83,0,0,1,8-6l210.86,0h3a26,26,0,0,1,3.05.09,9.28,9.28,0,0,1,8,8.17c.09,1,0,2,.06,3v3q0,11.85,0,23.36,0,23,0,44.67c0,28.82,0,55.67,0,80.18,0,49-.07,88.68-.09,116.1q0,10.29,0,18.22c0,2.64,0,5.08,0,7.3v3.19a9.75,9.75,0,0,1-.29,2.85,8.29,8.29,0,0,1-2.44,4,8.48,8.48,0,0,1-2.95,1.76,8.28,8.28,0,0,1-2.05.42Z" style="fill:#263238"></path><path d="M359.78,344.9A24.2,24.2,0,1,1,335.19,321,24.29,24.29,0,0,1,359.78,344.9Zm-35.77.58a11.57,11.57,0,1,0,11.39-11.81A11.61,11.61,0,0,0,324,345.48Z" style="fill:#e0e0e0"></path><path d="M359.78,344.9A24.29,24.29,0,0,1,336,369.6l-.2-12.69a11.62,11.62,0,0,0-.37-23.24L335.19,321A24.28,24.28,0,0,1,359.78,344.9Z" style="fill:#455a64"></path><path d="M338.14,371.55A27.65,27.65,0,0,1,309.83,344l14.77-.24c.12,7.5,5.83,12.22,13.29,12.1Z" style="fill:#23C0C9"></path><path d="M376.64,347.63a24.2,24.2,0,1,1,24.59,23.92A24.3,24.3,0,0,1,376.64,347.63Zm35.77-.58A11.57,11.57,0,1,0,401,358.87,11.61,11.61,0,0,0,412.41,347.05Z" style="fill:#455a64"></path><path d="M376.64,347.63a24.3,24.3,0,0,1,23.81-24.7l.2,12.69a11.63,11.63,0,0,0,.37,23.25l.21,12.68A24.27,24.27,0,0,1,376.64,347.63Z" style="fill:#23C0C9"></path><path d="M398.28,321a27.65,27.65,0,0,1,28.31,27.55l-14.77.23c-.12-7.49-5.83-12.22-13.29-12.09Z" style="fill:#e0e0e0"></path><path d="M468.73,321.29a24.2,24.2,0,1,1-23.92,24.59A24.29,24.29,0,0,1,468.73,321.29Zm.58,35.77a11.57,11.57,0,1,0-11.81-11.38A11.6,11.6,0,0,0,469.31,357.06Z" style="fill:#455a64"></path><path d="M468.73,321.29a24.29,24.29,0,0,1,24.7,23.81l-12.69.2a11.62,11.62,0,0,0-23.24.38l-12.69.2A24.3,24.3,0,0,1,468.73,321.29Z" style="fill:#23C0C9"></path><path d="M495.38,342.93a27.65,27.65,0,0,1-27.54,28.31l-.24-14.77c7.5-.12,12.22-5.83,12.1-13.29Z" style="fill:#e0e0e0"></path></g><g id="freepik--speech-bubble--inject-2"><path d="M201.73,161.27l-7.47.73a24.2,24.2,0,1,1,4-7.66h0Z" style="fill:#fff"></path><path d="M201.85,161l-.25-.47-.68-1.32c-.6-1.19-1.47-2.89-2.59-5.11l.19,0h0a.11.11,0,0,1-.15,0,.13.13,0,0,1-.05-.13,24.31,24.31,0,0,0,.64-11.74,24.37,24.37,0,0,0-8.2-13.81,23.85,23.85,0,0,0-36.33,7.06l-.68,1.31-.55,1.36a26.16,26.16,0,0,0-.9,2.76,23.8,23.8,0,0,0,8.13,24.38,24,24,0,0,0,33.87-3.7l.08,0,5.52-.47,1.45-.11c.33,0,.51,0,.51,0l-.46.06-1.41.16-5.59.61.07,0a23.93,23.93,0,0,1-9.37,7.29,24.39,24.39,0,0,1-31.56-11.56,24.7,24.7,0,0,1-2.46-10.89,24.35,24.35,0,0,1,.72-5.79,25,25,0,0,1,.91-2.82l.56-1.39.69-1.34A24.33,24.33,0,0,1,191,128.16a24.62,24.62,0,0,1,8.26,14.09,24.24,24.24,0,0,1-.76,11.87l-.21-.09v0a.12.12,0,0,1,.16,0l0,.05,2.5,5.23c.27.56.47,1,.62,1.32A4.58,4.58,0,0,1,201.85,161Z" style="fill:#263238"></path><rect x="183.91" y="146.2" width="3.69" height="10.4" style="fill:#e0e0e0"></rect><polygon points="182.54 147.07 188.85 147.07 185.63 143.74 182.54 147.07" style="fill:#e0e0e0"></polygon><rect x="173.54" y="131.92" width="4.94" height="28.83" style="fill:#e0e0e0"></rect><polygon points="171.71 133.08 180.15 133.08 175.84 128.64 171.71 133.08" style="fill:#e0e0e0"></polygon><path d="M177,156.19l0,2.72-2.42,0,0-2.64a11.41,11.41,0,0,1-6-2l1.37-2.94a9.77,9.77,0,0,0,4.68,1.78l.05-4c-2.68-.69-5.67-1.63-5.62-5.09,0-2.57,1.92-4.74,5.76-5.13l0-2.69,2.42,0,0,2.64a10.9,10.9,0,0,1,4.89,1.55l-1.25,3a9.85,9.85,0,0,0-3.68-1.31l-.06,4.12c2.68.66,5.62,1.6,5.58,5C182.71,153.63,180.84,155.78,177,156.19Zm-2.28-10.73,0-3.44c-1.28.27-1.8,1-1.81,1.77S173.7,145.11,174.76,145.46Zm4.09,5.89c0-.85-.69-1.32-1.73-1.69l0,3.34C178.29,152.75,178.83,152.13,178.85,151.35Z" style="fill:#23C0C9"></path><rect x="162.91" y="139.77" width="4.26" height="12" style="fill:#e0e0e0"></rect><polygon points="161.33 140.78 168.61 140.78 164.89 136.93 161.33 140.78" style="fill:#e0e0e0"></polygon></g><g id="freepik--Character--inject-2"><path d="M260.13,433.71l-.67,17.89s18,6.69,18.14,10l-34.72-.06-.09-27.91Z" style="fill:#455a64"></path><path d="M248.72,450.07a1.41,1.41,0,0,0-1,1.62,1.36,1.36,0,0,0,1.59,1,1.49,1.49,0,0,0,1-1.72,1.42,1.42,0,0,0-1.77-.85" style="fill:#e0e0e0"></path><path d="M242.88,461.54l.1-2.81,33.26,1.11s1.54.68,1.36,1.76Z" style="fill:#263238"></path><path d="M260,451.42c0,.17-.85.24-1.69.79s-1.28,1.25-1.44,1.19.1-1,1.12-1.69S260.06,451.26,260,451.42Z" style="fill:#fff"></path><path d="M263.66,452.93c0,.17-.7.45-1.28,1.17s-.74,1.47-.91,1.47-.27-1,.46-1.85S263.65,452.77,263.66,452.93Z" style="fill:#fff"></path><path d="M265.72,457.3c-.16,0-.39-.82,0-1.74s1.23-1.3,1.3-1.16-.42.64-.77,1.41S265.89,457.28,265.72,457.3Z" style="fill:#fff"></path><path d="M259.72,447.33c-.07.15-.85-.08-1.81,0s-1.7.36-1.79.22.63-.75,1.76-.81S259.8,447.19,259.72,447.33Z" style="fill:#fff"></path><path d="M218.47,434.82l-1,21.63,4.17,17.33a2.22,2.22,0,0,1-1.79,2.71h0a2.2,2.2,0,0,1-1.93-.62c-3.24-3.24-14.76-15.38-14.81-16.53-.07-1.84-.61-23.15-.61-23.15Z" style="fill:#455a64"></path><path d="M219.89,476.49l-16.82-18.88,0,.92a3.47,3.47,0,0,0,.75,2.18c1.34,1.65,5.14,6.11,14.09,15.16a2.22,2.22,0,0,0,2,.62Z" style="fill:#263238"></path><g style="opacity:0.6000000000000001"><path d="M207.67,450.73a1.35,1.35,0,0,1,.33,1.76,1.3,1.3,0,0,1-1.75.34,1.41,1.41,0,0,1-.33-1.87,1.34,1.34,0,0,1,1.85-.15" style="fill:#fff"></path></g><path d="M215.15,466.92a6.6,6.6,0,0,1,1.94-1.64,7,7,0,0,1,2.5-.43c0-.05-.25-.22-.76-.3a3.53,3.53,0,0,0-3.43,1.59C215.14,466.58,215.1,466.9,215.15,466.92Z" style="fill:#fff"></path><path d="M216.63,469.85a19.59,19.59,0,0,1,1.94-.89,16.66,16.66,0,0,1,2.12-.22,2.49,2.49,0,0,0-2.25-.24C217.16,468.85,216.52,469.79,216.63,469.85Z" style="fill:#fff"></path><path d="M212.36,463.14a22.87,22.87,0,0,1,2.9-1.57,21.67,21.67,0,0,1,3.23-.68,4.89,4.89,0,0,0-3.39.23A5,5,0,0,0,212.36,463.14Z" style="fill:#fff"></path><path d="M212.11,456.54c0,.13,1.26-.34,2.81-.36s2.79.38,2.84.24a4.36,4.36,0,0,0-2.85-.72A4.28,4.28,0,0,0,212.11,456.54Z" style="fill:#fff"></path><path d="M212.23,450.18a11.15,11.15,0,0,1,2.92-.45,10.81,10.81,0,0,1,2.86.78s-.2-.32-.69-.62a4.75,4.75,0,0,0-2.14-.64,4.63,4.63,0,0,0-2.2.4C212.46,449.89,212.2,450.14,212.23,450.18Z" style="fill:#fff"></path><path d="M215.14,448.52a1.91,1.91,0,0,0,.05-.82,5.63,5.63,0,0,0-.61-2.16,2.47,2.47,0,0,0-1.05-1.23.9.9,0,0,0-1,.18,1.49,1.49,0,0,0-.37,1,3.15,3.15,0,0,0,2.69,3,3.63,3.63,0,0,0,3.61-1.83,1.25,1.25,0,0,0,.08-1,.87.87,0,0,0-.9-.49,3.19,3.19,0,0,0-1.44.71,6.58,6.58,0,0,0-1.52,1.65c-.28.45-.37.73-.34.74a10,10,0,0,1,2.06-2.12,2.84,2.84,0,0,1,1.27-.58.45.45,0,0,1,.49.26.86.86,0,0,1-.09.68,3.26,3.26,0,0,1-3.15,1.55,2.74,2.74,0,0,1-2.32-2.48,1.08,1.08,0,0,1,.23-.69.49.49,0,0,1,.55-.11,2.31,2.31,0,0,1,.92,1A8.68,8.68,0,0,1,215.14,448.52Z" style="fill:#fff"></path><path d="M270.81,284.11a76.66,76.66,0,0,1,2.64,22.52C273.28,311.45,262.71,445,262.71,445l-21.87.93.85-125.1-1.77.47s-9.68,53.74-10.29,62.41c-.55,7.78-8.23,64.5-8.23,64.5l-19.92-.55,3.16-73.1,4.4-71.76L211,281.85Z" style="fill:#263238"></path><path d="M237.71,308.2a3.5,3.5,0,0,0,.93.48,10.43,10.43,0,0,0,2.75.83,5.57,5.57,0,0,0,2-.07,4.21,4.21,0,0,0,2.06-1.1,5,5,0,0,0,1.18-2.29c.22-.86.33-1.75.48-2.65.54-3.64.87-6.95,1.05-9.35.09-1.2.14-2.17.16-2.84a4.54,4.54,0,0,0,0-1,4.6,4.6,0,0,0-.16,1c-.08.76-.19,1.71-.31,2.82-.25,2.39-.64,5.68-1.18,9.31-.28,1.79-.44,3.61-1.51,4.71a4.56,4.56,0,0,1-3.73,1.15,12.37,12.37,0,0,1-2.72-.68A5.37,5.37,0,0,0,237.71,308.2Z" style="fill:#455a64"></path><path d="M243.57,291s-.15-.11-.45-.11a2,2,0,0,0-1.21.44,2.16,2.16,0,0,0-.85,1.73,2.17,2.17,0,0,0,3.75,1.23,2.19,2.19,0,0,0,.34-1.9,2,2,0,0,0-.71-1.07c-.26-.18-.43-.2-.44-.18a2.54,2.54,0,0,1,.83,1.33,2,2,0,0,1-.35,1.55,1.63,1.63,0,0,1-1.8.42,1.61,1.61,0,0,1-1.19-1.4,1.93,1.93,0,0,1,.63-1.46A2.51,2.51,0,0,1,243.57,291Z" style="fill:#455a64"></path><path d="M209.29,301.47a2.37,2.37,0,0,0,.75.08,13.93,13.93,0,0,0,2.05-.06,19.92,19.92,0,0,0,12.06-5.7,14.67,14.67,0,0,0,1.36-1.54,2.52,2.52,0,0,0,.41-.63c-.07-.05-.73.78-2,1.94a22.12,22.12,0,0,1-11.88,5.6C210.36,301.4,209.29,301.38,209.29,301.47Z" style="fill:#455a64"></path><polygon points="292.56 215.5 304.68 191.37 313.89 196.05 306.01 223.03 292.56 215.5" style="fill:#ffbf9d"></polygon><path d="M316.93,194.92c1.37-2.25,3-4.72,3-4.72l1.32-2.26a2.55,2.55,0,0,1,.3.43,1.88,1.88,0,0,0,.64.75,1.55,1.55,0,0,0,1.72-.42,3.71,3.71,0,0,0-1.29-6.29,2.9,2.9,0,0,0-.69-.83c-1.92-1.54-5.33-.48-5.33-.48l.35-.86s2-2,6.54-.45a2.92,2.92,0,0,0,2.08,0,1.49,1.49,0,0,0,.91-.89c.36-1.1-.34-1.63-3.13-2.65s-5.84-1.07-7.52,0a19.41,19.41,0,0,0-2.25,1.64s2.73-7.91,2.88-8.42c.44-1.47.16-2.89-.8-3.27-.61-.25-1.56-.11-2.13,1.59-.49,1.46-7.42,15.85-7.42,15.85l-2.7,6.54-1.35,5.75,8.4,3.82,2.11-1.32A8.16,8.16,0,0,0,316.93,194.92Z" style="fill:#ffbf9d"></path><path d="M304.89,190.06a2.19,2.19,0,0,0,2.51-.42c.69-.59,1.17-1.39,1.82-2,1.95-1.9,5.18-2.06,7-4.06.26-.27.5-.7.28-1s-.63-.25-1-.18L306.69,184" style="fill:#ffbf9d"></path><path d="M306.69,184a4.23,4.23,0,0,1,.94-.28c.61-.14,1.5-.34,2.6-.57l3.87-.79,1.12-.23a1.78,1.78,0,0,1,1.35.06.74.74,0,0,1,.27.8,1.64,1.64,0,0,1-.35.65,6.44,6.44,0,0,1-1,.87,35.37,35.37,0,0,1-4.4,2.07,6.74,6.74,0,0,0-1.69,1.13c-.47.44-.83.93-1.21,1.36a3.22,3.22,0,0,1-2.36,1.29c-.68,0-1-.33-.93-.34a2.63,2.63,0,0,0,.92.14,3.11,3.11,0,0,0,2.09-1.33,18.3,18.3,0,0,1,1.19-1.42,7.08,7.08,0,0,1,1.78-1.25,41.27,41.27,0,0,0,4.32-2.07,5.38,5.38,0,0,0,.91-.79c.25-.28.35-.61.17-.71s-.59,0-1,0l-1.13.21-3.88.68c-1.11.19-2,.33-2.63.42A3.16,3.16,0,0,1,306.69,184Z" style="fill:#ff9a6c"></path><path d="M316.47,181.11a3.54,3.54,0,0,1,1-1.36,2.91,2.91,0,0,1,1.72-.55,7.52,7.52,0,0,1,2.24.4,12.14,12.14,0,0,0,2.31.53,3.78,3.78,0,0,0,2-.28,1.49,1.49,0,0,0,.84-1c.05-.31,0-.48,0-.48a4,4,0,0,0-.12.45,1.4,1.4,0,0,1-.81.85,3.88,3.88,0,0,1-1.82.19,12.56,12.56,0,0,1-2.24-.55,7.08,7.08,0,0,0-2.35-.38,3,3,0,0,0-1.85.67,2.79,2.79,0,0,0-.79,1.07C316.46,180.93,316.45,181.1,316.47,181.11Z" style="fill:#ff9a6c"></path><path d="M316.61,168.9a10.57,10.57,0,0,0-.55,1.57c-.35,1.09-.77,2.38-1.24,3.81l-1.29,3.79a10.79,10.79,0,0,0-.5,1.59,7,7,0,0,0,.72-1.51c.39-1,.89-2.28,1.39-3.77s.89-2.85,1.14-3.84A7.46,7.46,0,0,0,316.61,168.9Z" style="fill:#ff9a6c"></path><path d="M317.66,183.48s.19,0,.52,0a1.57,1.57,0,0,1,1.24.34.82.82,0,0,1,.18.8,4.92,4.92,0,0,1-.41,1,1.82,1.82,0,0,0-.23,1.3,1.57,1.57,0,0,0,1,1,1.85,1.85,0,0,0,1.43-.13,2.32,2.32,0,0,0,.95-.91,7.12,7.12,0,0,0,.65-2,4.2,4.2,0,0,0,0-1.44,1.15,1.15,0,0,0-.19-.49,4.84,4.84,0,0,0,.06.51,4.72,4.72,0,0,1-.14,1.38,7.6,7.6,0,0,1-.68,1.93,1.8,1.8,0,0,1-2,.88,1.25,1.25,0,0,1-.8-.8,1.63,1.63,0,0,1,.19-1.09,4.74,4.74,0,0,0,.42-1.08,1,1,0,0,0-.3-1,1.63,1.63,0,0,0-1.42-.31A1.27,1.27,0,0,0,317.66,183.48Z" style="fill:#ff9a6c"></path><path d="M321.33,187.5s-.12.14-.11.46a1.44,1.44,0,0,0,.65,1.12,2,2,0,0,0,1.92,0,3.23,3.23,0,0,0,1.47-1.83,3.83,3.83,0,0,0,0-2.34,3.65,3.65,0,0,0-1-1.6,3.4,3.4,0,0,0-1.09-.67,1,1,0,0,0-.46-.1,5.83,5.83,0,0,1,1.39.94A3.48,3.48,0,0,1,325,185a3.57,3.57,0,0,1-.05,2.14,3,3,0,0,1-1.31,1.67,1.73,1.73,0,0,1-1.65,0,1.35,1.35,0,0,1-.64-.93C321.3,187.67,321.36,187.5,321.33,187.5Z" style="fill:#ff9a6c"></path><path d="M314.08,191s-.25-.18-.76-.24a3.16,3.16,0,0,0-2,.46l.24.16a8.88,8.88,0,0,0,.18-1.11,7,7,0,0,0-.52-3.84,18.09,18.09,0,0,1,.19,3.81,8.47,8.47,0,0,1-.16,1.08l-.07.37.31-.21a3.36,3.36,0,0,1,1.81-.52C313.79,191,314.07,191.05,314.08,191Z" style="fill:#ff9a6c"></path><path d="M318.77,177.57c-.09,0,0,.68.62,1.2a1.54,1.54,0,0,0,1.28.49c0-.1-.54-.27-1.05-.73S318.86,177.53,318.77,177.57Z" style="fill:#ff9a6c"></path><path d="M314.31,202.24l-12.26-6.31-10.5,16.88L272.7,197.45a29.41,29.41,0,0,0-11.05-5.27l-1.07,3.36,3.28,27.7s21.16,13.4,26.68,13.95C302.05,238.33,314.31,202.24,314.31,202.24Z" style="fill:#455a64"></path><path d="M269.69,251.6l-2.37-39-5.67-20.41-17.82-2.1-21.22,1.29-17.92,10,2.95,31.31L212,265.5l-2.6,26c3.67,3.41,15.4,7.74,33,6.67A62.21,62.21,0,0,0,271.67,289Z" style="fill:#455a64"></path><path d="M192.78,305.59c0-.8-8.43-42-8.29-43.91,1.17-15.16,8.54-39.46,10.78-47.08,3.39-11.5,10.24-13.55,10.24-13.55s3,4.37,5.39,13,0,17.9,0,17.9L204,260l4.34,44.42Z" style="fill:#455a64"></path><path d="M264.86,207.2a9.18,9.18,0,0,1,.53,1.56c.31,1,.7,2.49,1.12,4.33s.85,4,1.19,6.53.59,5.22.77,8.1c.33,5.75.47,11,.68,14.73.1,1.81.19,3.31.25,4.45a9.9,9.9,0,0,1,0,1.65,12.1,12.1,0,0,1-.23-1.63c-.13-1-.26-2.57-.42-4.45-.31-3.76-.5-9-.83-14.72-.18-2.87-.42-5.6-.73-8.06s-.7-4.68-1.07-6.53-.7-3.33-1-4.35A11.62,11.62,0,0,1,264.86,207.2Z" style="fill:#263238"></path><path d="M292.81,225.66a6.31,6.31,0,0,1-.85-1.84,20.17,20.17,0,0,1-1-4.81,21.13,21.13,0,0,1,.13-4.91,5.76,5.76,0,0,1,.5-2,50,50,0,0,0-.11,6.84A48.12,48.12,0,0,0,292.81,225.66Z" style="fill:#263238"></path><path d="M210.86,232.7c.14,0-1.23,6-3.07,13.41s-3.43,13.32-3.57,13.29,1.24-6,3.07-13.41S210.72,232.67,210.86,232.7Z" style="fill:#263238"></path><path d="M210.62,218.61c-.14.07-1.22-2.41-3.19-5.06s-4-4.41-3.91-4.53a15.14,15.14,0,0,1,4.33,4.22A14.9,14.9,0,0,1,210.62,218.61Z" style="fill:#263238"></path><path d="M249.17,301.62a40.83,40.83,0,1,1-9.7,77.15h0a40.83,40.83,0,0,1,9.7-77.15Zm14.56,77.56a38.06,38.06,0,1,0-23.11-2.89A38.09,38.09,0,0,0,263.73,379.18Z" style="fill:#455a64"></path><path d="M256.64,384.57A43,43,0,1,1,271.37,382,42.53,42.53,0,0,1,256.64,384.57Zm.08-79a36.15,36.15,0,0,0-34,48.54,36.08,36.08,0,0,0,40.6,23.12h0A36.27,36.27,0,0,0,289.46,357a36.18,36.18,0,0,0-32.74-51.41Z" style="fill:#e0e0e0"></path><path d="M157.36,301.85l.36-.89c.78-1.91,2.48-3,3.79-2.48l59.68,24.28c.3.12.4.56.22,1L218.87,330c-.17.42-.55.67-.85.55l-59.67-24.28C157,305.73,156.59,303.75,157.36,301.85Z" style="fill:#e0e0e0"></path><path d="M270.73,327.9c.1.11-7.68,6.91-17.35,15.19s-17.6,14.9-17.69,14.8S243.36,351,253,342.7,270.64,327.79,270.73,327.9Z" style="fill:#fff"></path><path d="M280.73,327.9c.09.11-6.45,5.88-14.62,12.9s-14.86,12.62-15,12.52,6.45-5.89,14.62-12.91S280.64,327.79,280.73,327.9Z" style="fill:#fff"></path><path d="M295.45,341.75s0-.22-.06-.63-.07-1-.12-1.84c0-.41,0-.86-.08-1.35s-.16-1-.24-1.62-.2-1.22-.3-1.89-.34-1.36-.51-2.11A36.89,36.89,0,0,0,289.85,322,38.64,38.64,0,0,0,280,311.09l-1.67-1.24c-.59-.38-1.2-.73-1.81-1.11s-1.22-.78-1.89-1.09l-2-1-1-.48-1.07-.39-2.17-.79c-.74-.24-1.51-.4-2.27-.61a19.86,19.86,0,0,0-2.34-.52,35.22,35.22,0,0,0-4.87-.57c-.83,0-1.66-.11-2.51-.09l-2.55.13c-.42,0-.86,0-1.28.08l-1.29.2c-.86.14-1.73.24-2.59.42a40,40,0,0,0-5.13,1.51,38.43,38.43,0,0,0-5,2.21c-.81.44-1.59.95-2.39,1.43-.4.25-.82.47-1.19.75l-1.14.85A35.6,35.6,0,0,0,225.7,319l-.88,1.19-.78,1.26-.77,1.28a9.25,9.25,0,0,0-.72,1.31l-1.31,2.72-1,2.85a38.06,38.06,0,0,0,0,24.29c.35.95.7,1.9,1,2.85s.88,1.81,1.31,2.72l.33.67.39.64L224,362l.78,1.27.88,1.19a35.08,35.08,0,0,0,8.14,8.17l1.13.85c.38.29.8.5,1.19.75.81.48,1.59,1,2.4,1.44a43,43,0,0,0,10.16,3.71c.86.18,1.73.28,2.59.42l1.29.2c.42.06.86,0,1.28.08l2.55.14c.85,0,1.68-.07,2.51-.1a37.17,37.17,0,0,0,4.88-.56,22.5,22.5,0,0,0,2.33-.53c.76-.21,1.53-.37,2.27-.61l2.17-.79,1.07-.39,1-.48,2-1c.66-.3,1.25-.73,1.88-1.09s1.22-.73,1.81-1.11L280,372.4a38.64,38.64,0,0,0,9.81-10.94,36.89,36.89,0,0,0,4.29-10.28c.17-.75.43-1.43.51-2.11s.2-1.3.3-1.89.19-1.12.24-1.61.06-.95.08-1.36c.05-.79.09-1.4.12-1.84s.06-.62.06-.62,0,.21,0,.62,0,1.05-.06,1.85l-.06,1.36c0,.5-.14,1-.22,1.63s-.18,1.22-.28,1.89a19.47,19.47,0,0,1-.49,2.13,36.59,36.59,0,0,1-4.23,10.37,38.61,38.61,0,0,1-9.84,11.09L278.58,374c-.59.39-1.21.75-1.83,1.13s-1.22.79-1.89,1.1l-2,1-1,.49-1.08.4-2.19.8c-.74.25-1.52.41-2.29.62a18.38,18.38,0,0,1-2.36.54,35.76,35.76,0,0,1-4.92.59c-.84,0-1.69.11-2.54.1l-2.58-.13c-.43,0-.87,0-1.3-.08l-1.3-.19c-.87-.15-1.75-.25-2.62-.43a41.1,41.1,0,0,1-5.21-1.51,40.59,40.59,0,0,1-5.08-2.23c-.83-.44-1.62-1-2.44-1.44-.39-.26-.82-.48-1.2-.76l-1.15-.86a35.5,35.5,0,0,1-8.25-8.28l-.9-1.2-.79-1.28-.78-1.29-.4-.65-.33-.68c-.44-.91-.88-1.83-1.33-2.75s-.7-1.92-1.06-2.89a41.91,41.91,0,0,1-2-12.31,41.48,41.48,0,0,1,2-12.3c.35-1,.7-1.93,1.06-2.89l1.32-2.75a10,10,0,0,1,.73-1.33l.78-1.29.79-1.29.9-1.2a35.72,35.72,0,0,1,8.25-8.27l1.15-.85c.38-.29.81-.51,1.21-.76.81-.49,1.6-1,2.43-1.45a40.59,40.59,0,0,1,5.08-2.23,41.45,41.45,0,0,1,5.2-1.51c.88-.18,1.76-.28,2.63-.42l1.3-.2c.43-.06.87-.05,1.3-.08l2.58-.13c.85,0,1.7.07,2.54.11a34.45,34.45,0,0,1,4.92.58,18.77,18.77,0,0,1,2.36.54c.77.21,1.55.37,2.29.62l2.19.8,1.08.4,1,.49,2,1c.67.31,1.26.74,1.89,1.1s1.24.74,1.83,1.13l1.68,1.26a38.61,38.61,0,0,1,9.84,11.09,36.59,36.59,0,0,1,4.23,10.37,19.47,19.47,0,0,1,.49,2.13c.1.68.19,1.31.28,1.9s.18,1.13.22,1.62,0,1,.06,1.36c0,.8.05,1.41.06,1.85S295.45,341.75,295.45,341.75Z" style="fill:#263238"></path><path d="M281.15,362.32a10.46,10.46,0,0,1,1-1.32,37,37,0,0,0,2.47-3.7,34.12,34.12,0,0,0,3-28.21A38.37,38.37,0,0,0,285.9,325a13.65,13.65,0,0,1-.68-1.49s.1.11.25.35.37.58.61,1.05a30.55,30.55,0,0,1,1.81,4.1,33,33,0,0,1-3,28.52,29.33,29.33,0,0,1-2.63,3.63c-.33.41-.62.7-.81.91A1.52,1.52,0,0,1,281.15,362.32Z" style="fill:#263238"></path><path d="M279.1,365.86c.07.12-.23.43-.68.68s-.86.37-.93.24.23-.43.68-.68S279,365.74,279.1,365.86Z" style="fill:#263238"></path><path d="M228.28,358.34s-.1-.15-.24-.46-.36-.77-.58-1.38a33.44,33.44,0,0,1-1.56-5.26A37.92,37.92,0,0,1,235,317.46a34.45,34.45,0,0,1,4-3.76c.5-.41.92-.69,1.19-.89s.43-.3.44-.28-.53.48-1.5,1.33a40.16,40.16,0,0,0-12.32,19.51,39.61,39.61,0,0,0-.58,17.79,40.88,40.88,0,0,0,1.4,5.27C228.06,357.65,228.32,358.32,228.28,358.34Z" style="fill:#fff"></path><path d="M251.16,310a5.51,5.51,0,0,1-2.28.45,5.42,5.42,0,0,1-2.33-.06,5.33,5.33,0,0,1,2.28-.45A5.42,5.42,0,0,1,251.16,310Z" style="fill:#fff"></path><path d="M206.25,304.54l.28,2.22,4.31,5.15,3.08,7.91L209.27,318s-2,9.52-2.77,9.78-3-.53-2.79-2.36a3,3,0,0,1-2.52.83c-1.39-.29-1.73-1.19-1.57-2.93,0,0-1.63,1.33-2.6.5a3,3,0,0,1-.89-2.26s-2.12.18-2.41-.92a18.65,18.65,0,0,1-.12-5.44l1.27-6.08-.78-3.52Z" style="fill:#ffbf9d"></path><path d="M204.75,319.93a17.49,17.49,0,0,0-1,5.49,9.13,9.13,0,0,0,.74-2.71A8.82,8.82,0,0,0,204.75,319.93Z" style="fill:#ff9a6c"></path><path d="M200.43,318.83a11.27,11.27,0,0,0-.88,4.39,11.27,11.27,0,0,0,.88-4.39Z" style="fill:#ff9a6c"></path><path d="M196.83,317.81a5.87,5.87,0,0,0-.39,1.87,8.53,8.53,0,0,0-.31,1.87,3,3,0,0,0,.75-1.8A3.6,3.6,0,0,0,196.83,317.81Z" style="fill:#ff9a6c"></path><path d="M209.63,315.25a25.45,25.45,0,0,0-1.29,5.35,7.71,7.71,0,0,0,.93-2.61A7.5,7.5,0,0,0,209.63,315.25Z" style="fill:#ff9a6c"></path><path d="M221.12,171.39a68.44,68.44,0,0,1-3.4-11.34,24,24,0,0,1,.51-11.73c.19-.56,1.84-4.39,2.43-4.36.43,0-.54,3.58-.31,3.94a20.3,20.3,0,0,1,2.71,11.77,53.65,53.65,0,0,1-1.94,11.72" style="fill:#263238"></path><path d="M252.88,153.86a17.54,17.54,0,0,0-17.21-16.44l-1.07,0c-9.91.41-14.34,9.28-13.66,19.17l1.67,34.8,3.37,3.26a10.81,10.81,0,0,0,17.85-4.55h0c-.07-2.79.11-2.59.13-2.59s9.54-1.32,9.83-10.83C253.92,172,253.43,162.47,252.88,153.86Z" style="fill:#ffbf9d"></path><path d="M244,187.49a23,23,0,0,1-12.31-3.88s2.89,7,12.4,6.28Z" style="fill:#ff9a6c"></path><path d="M250,162.86a1.36,1.36,0,0,1-1.34,1.35,1.29,1.29,0,0,1-1.37-1.25,1.36,1.36,0,0,1,1.33-1.35A1.31,1.31,0,0,1,250,162.86Z" style="fill:#263238"></path><path d="M237.34,162.75A1.36,1.36,0,0,1,236,164.1a1.29,1.29,0,0,1-1.38-1.25A1.36,1.36,0,0,1,236,161.5,1.29,1.29,0,0,1,237.34,162.75Z" style="fill:#263238"></path><path d="M250.48,159.1c-.17.18-1.18-.6-2.65-.62s-2.54.69-2.7.5.1-.39.58-.72a3.7,3.7,0,0,1,2.16-.63,3.61,3.61,0,0,1,2.11.72C250.42,158.7,250.57,159,250.48,159.1Z" style="fill:#263238"></path><path d="M236.87,159.15c-.17.18-1.19-.6-2.65-.62s-2.54.69-2.7.51.1-.4.57-.73a3.75,3.75,0,0,1,2.17-.63,3.55,3.55,0,0,1,2.1.72C236.81,158.75,237,159.08,236.87,159.15Z" style="fill:#263238"></path><path d="M241.58,170.62a8.94,8.94,0,0,1,2.38-.39c.37,0,.72-.1.79-.35a1.86,1.86,0,0,0-.23-1.11c-.33-.91-.68-1.87-1.05-2.86-1.46-4.08-2.52-7.42-2.35-7.48s1.48,3.2,2.94,7.27c.36,1,.69,2,1,2.88a2.1,2.1,0,0,1,.17,1.46.94.94,0,0,1-.62.54,2.6,2.6,0,0,1-.64.08A9.82,9.82,0,0,1,241.58,170.62Z" style="fill:#263238"></path><path d="M236.75,154.49c-.18.38-1.61.06-3.34.11s-3.15.39-3.34,0c-.09-.18.18-.53.77-.86a5.47,5.47,0,0,1,2.54-.64,5.54,5.54,0,0,1,2.56.54C236.54,154,236.83,154.3,236.75,154.49Z" style="fill:#263238"></path><path d="M251.06,153.63c-.22.39-1.44.3-2.82.59s-2.49.77-2.83.49c-.16-.14,0-.51.4-.93a4.49,4.49,0,0,1,2.17-1,4.38,4.38,0,0,1,2.38.16C250.92,153.15,251.15,153.45,251.06,153.63Z" style="fill:#263238"></path><path d="M221.59,163.56c-.16-.08-6.5-2.05-6.4,4.45s6.6,5.07,6.61,4.89S221.59,163.56,221.59,163.56Z" style="fill:#ffbf9d"></path><path d="M219.67,170.49s-.11.08-.3.17a1.14,1.14,0,0,1-.85,0,2.81,2.81,0,0,1-1.33-2.5,3.73,3.73,0,0,1,.29-1.63,1.32,1.32,0,0,1,.84-.88.58.58,0,0,1,.67.3c.09.18,0,.31.09.32s.14-.11.08-.37a.75.75,0,0,0-.26-.41.88.88,0,0,0-.63-.15,1.57,1.57,0,0,0-1.17,1,4,4,0,0,0-.37,1.82,2.92,2.92,0,0,0,1.7,2.78,1.2,1.2,0,0,0,1-.18C219.66,170.64,219.69,170.5,219.67,170.49Z" style="fill:#ff9a6c"></path><path d="M248.43,143.34c1-.61-2.2-3.94-4.81-5.05-4-1.69-10-2.64-13.53-1.53-4.31,1.33-7.86,3.57-10,7.57a25.59,25.59,0,0,0-2.57,13.13,7.75,7.75,0,0,0,1,3.95c.94,1.42,2.71,2.29,2.68,4.27a2.72,2.72,0,0,0,.72,2c1.22,1.24,2.65,0,3.29-1.19,1.37-2.58,1.46-5.63,1.51-8.55a18.83,18.83,0,0,0-.55-6.18c-.34-1.07-.88-2.09-1.16-3.18a3.91,3.91,0,0,1,.38-3.26,4.12,4.12,0,0,1,.52-.54,6.78,6.78,0,0,1,6.7-1.44c3.69,1.21,10,3,11.59,1.72a10.15,10.15,0,0,0,2.85-3Z" style="fill:#263238"></path><path d="M242.52,174.57c0,.11-.33.32-1,.4a4.82,4.82,0,0,1-4.42-2.1c-.35-.56-.41-1-.31-1s1,1.17,2.6,1.9S242.47,174.33,242.52,174.57Z" style="fill:#263238"></path><polygon points="219.8 192.94 222.43 187.54 237.85 194.88 244.05 188.44 245.66 192.18 237.85 201.05 234.49 201.05 227.45 199.81 219.8 192.94" style="fill:#455a64"></polygon><path d="M237.3,194.93a6.75,6.75,0,0,1-.59,1.85,20.9,20.9,0,0,1-2.48,4.33l-.13.16-.19-.1c-1.17-.69-2.44-1.42-3.77-2.19-2.67-1.58-5.08-3-6.81-4.1a21.21,21.21,0,0,1-2.75-1.82,18.37,18.37,0,0,1,2.93,1.5c1.78,1,4.22,2.39,6.9,4l3.75,2.22-.31.06A33.55,33.55,0,0,0,237.3,194.93Z" style="fill:#263238"></path><path d="M245.2,189.81a6.05,6.05,0,0,1,.11,2.43,13,13,0,0,1-1.85,5.58,12.62,12.62,0,0,1-1.76,2.28l-.18.17-.17-.16a17.23,17.23,0,0,1-2.47-3.05,4.37,4.37,0,0,1-.7-1.36,43.34,43.34,0,0,0,3.51,4.05h-.35a13.49,13.49,0,0,0,1.68-2.21A14.62,14.62,0,0,0,245,192.2C245.17,190.74,245.11,189.82,245.2,189.81Z" style="fill:#263238"></path><path d="M248.35,296.05a.9.9,0,0,1,0-.26c0-.2,0-.46,0-.77,0-.71,0-1.69-.06-2.94,0-2.55-.13-6.25-.27-10.82-.3-9.13-.92-21.74-2.42-35.6-.76-6.93-1.67-13.51-2.62-19.47s-2-11.31-2.92-15.78c-.44-2.24-.91-4.25-1.3-6s-.75-3.29-1-4.54-.51-2.17-.67-2.86c-.07-.3-.12-.55-.17-.75a.86.86,0,0,1,0-.26.9.9,0,0,1,.09.25c0,.19.12.43.21.73.18.69.44,1.64.77,2.85s.72,2.74,1.13,4.51.92,3.78,1.38,6c1,4.46,2,9.81,3,15.77s1.89,12.56,2.65,19.5c1.51,13.87,2.08,26.5,2.28,35.64.09,4.57.12,8.27.1,10.83,0,1.25,0,2.23,0,2.94,0,.31,0,.57,0,.77A.9.9,0,0,1,248.35,296.05Z" style="fill:#263238"></path></g></svg>