<svg xmlns="http://www.w3.org/2000/svg" viewBox="0 0 500 500"><g id="freepik--character-2--inject-172"><g id="freepik--Camera--inject-172"><g id="freepik--Tripod--inject-172"><path d="M350.59,153l-2-3.39,8.29-4.78h0a1,1,0,0,1,1,.09,3.06,3.06,0,0,1,1.38,2.39,1,1,0,0,1-.39.88h0Z" style="fill:#FFFFFF"></path><path d="M351,152.11c0,.88-.61,1.24-1.38.8a3.06,3.06,0,0,1-1.38-2.39c0-.89.62-1.24,1.38-.8A3,3,0,0,1,351,152.11Z" style="fill:#FFFFFF"></path><path d="M351,152.11c0,.88-.61,1.24-1.38.8a3.06,3.06,0,0,1-1.38-2.39c0-.89.62-1.24,1.38-.8A3,3,0,0,1,351,152.11Z" style="opacity:0.2"></path><path d="M349.23,150.86l-18.35,10.59.58,1,18.36-10.58a.32.32,0,0,0,.12-.27.94.94,0,0,0-.41-.72A.33.33,0,0,0,349.23,150.86Z" style="fill:#263238"></path><path d="M334.1,259.82a.89.89,0,0,0-.54-.74,2.82,2.82,0,0,0-2.56,0,.88.88,0,0,0-.53.74l25.2,92.75h0a.65.65,0,0,0,.37.51,2,2,0,0,0,1.82,0,.63.63,0,0,0,.37-.51h0ZM293,352.57h0a.63.63,0,0,0,.37.51,2,2,0,0,0,1.82,0,.63.63,0,0,0,.37-.51h0l25.21-92.75a.89.89,0,0,0-.54-.74,2.82,2.82,0,0,0-2.56,0,.88.88,0,0,0-.53.74Zm34-92.64a3.11,3.11,0,0,0-2.82,0,1,1,0,0,0-.58.82l.58,111.53h0a.74.74,0,0,0,.41.56,2.2,2.2,0,0,0,2,0,.72.72,0,0,0,.41-.56h0l.58-111.53A1,1,0,0,0,327,259.93Z" style="fill:#37474f"></path><path d="M338,257.25a8.4,8.4,0,0,0-3.12-2.89c-5.11-3-13.39-3-18.5,0a8.4,8.4,0,0,0-3.12,2.89h-.71v2.87h0c.1,1.86,1.37,3.7,3.82,5.12,5.11,2.95,13.39,2.95,18.5,0,2.45-1.42,3.74-3.26,3.83-5.12h0v-2.87Z" style="fill:#FFFFFF"></path><g style="opacity:0.25"><path d="M338,257.25a8.4,8.4,0,0,0-3.12-2.89c-5.11-3-13.39-3-18.5,0a8.4,8.4,0,0,0-3.12,2.89h-.71v2.87h0c.1,1.86,1.37,3.7,3.82,5.12,5.11,2.95,13.39,2.95,18.5,0,2.45-1.42,3.74-3.26,3.83-5.12h0v-2.87Z"></path></g><path d="M334.85,251.91c-5.11-2.94-13.39-2.94-18.5,0s-5.1,7.73,0,10.68,13.39,3,18.5,0S340,254.86,334.85,251.91Z" style="fill:#FFFFFF"></path><path d="M327.57,258V180.54h-3.93V258a1,1,0,0,0,.57.8,3.09,3.09,0,0,0,2.78,0A1,1,0,0,0,327.57,258Z" style="fill:#263238"></path><path d="M332.68,181.17a4.82,4.82,0,0,0-1.79-1.65,11.67,11.67,0,0,0-10.58,0,4.82,4.82,0,0,0-1.79,1.65h-.4v1.64h0a3.8,3.8,0,0,0,2.19,2.93,11.67,11.67,0,0,0,10.58,0,3.82,3.82,0,0,0,2.2-2.93h0v-1.64Z" style="fill:#37474f"></path><path d="M330.89,178.12a11.67,11.67,0,0,0-10.58,0c-2.92,1.68-2.92,4.42,0,6.11a11.73,11.73,0,0,0,10.58,0C333.82,182.54,333.82,179.8,330.89,178.12Z" style="fill:#455a64"></path><path d="M327.32,180.84V164.6h-3.43v16.24a.85.85,0,0,0,.5.7,2.71,2.71,0,0,0,2.42,0A.87.87,0,0,0,327.32,180.84Z" style="fill:#263238"></path><path d="M331.41,162.49a4.07,4.07,0,0,0-1.47-1.36,9.62,9.62,0,0,0-8.68,0,4.16,4.16,0,0,0-1.47,1.36h-.33v1.35h0a3.11,3.11,0,0,0,1.79,2.4,9.62,9.62,0,0,0,8.68,0,3.12,3.12,0,0,0,1.8-2.4h0v-1.35Z" style="fill:#37474f"></path><path d="M329.94,160a9.56,9.56,0,0,0-8.68,0c-2.4,1.38-2.4,3.62,0,5a9.62,9.62,0,0,0,8.68,0C332.34,163.61,332.34,161.37,329.94,160Z" style="fill:#455a64"></path><path d="M326.92,162.74V138.53h-2.64v24.21a.64.64,0,0,0,.39.53,2,2,0,0,0,1.86,0A.64.64,0,0,0,326.92,162.74Z" style="fill:#263238"></path><rect x="312.82" y="322.57" width="1.49" height="27.27" transform="translate(-126.15 470.38) rotate(-63.96)" style="fill:#37474f"></rect><rect x="323.97" y="335.46" width="27.27" height="1.49" transform="translate(-113.33 182.36) rotate(-26.04)" style="fill:#37474f"></rect></g><g id="freepik--camera--inject-172"><path d="M311.06,115h0l-.22-.12c-1.26-.66-3-.53-4.86.56a15.56,15.56,0,0,0-7,12.2,7.11,7.11,0,0,0,.31,2.21,4.31,4.31,0,0,0,1.26,2,2.69,2.69,0,0,0,.44.31h0l0,0,.12.06,1.1.64a3.49,3.49,0,0,1-.54-.41,5.43,5.43,0,0,1-1.47-4.12,15.54,15.54,0,0,1,7-12.2,5.36,5.36,0,0,1,4.29-.79,4.12,4.12,0,0,1,.58.23Z" style="fill:#FFFFFF"></path><path d="M299.25,129.82a7.11,7.11,0,0,1-.31-2.21,15.56,15.56,0,0,1,7-12.2c1.89-1.09,3.6-1.22,4.86-.56l-2.44-1.41a3.6,3.6,0,0,0-1.84-.47,6.41,6.41,0,0,0-3.14,1,15.57,15.57,0,0,0-7,12.2c0,2.23.77,3.8,2,4.54l0,0h0l2.5,1.44a2.69,2.69,0,0,1-.44-.31A4.24,4.24,0,0,1,299.25,129.82Zm20.67-9.73h0l-7.55-4.36-.2-.12,0,0a4.12,4.12,0,0,0-.58-.23,5.36,5.36,0,0,0-4.29.79,15.54,15.54,0,0,0-7,12.2,5.43,5.43,0,0,0,1.47,4.12,3.49,3.49,0,0,0,.54.41l.11.06,7.63,4.41h0a3.59,3.59,0,0,0,1.83.47,6.43,6.43,0,0,0,3.14-1,15.56,15.56,0,0,0,7-12.2C322,122.4,321.2,120.82,319.92,120.09Z" style="fill:#455a64"></path><path d="M317.85,134.45a12,12,0,0,1-2.9,2.4,6.41,6.41,0,0,1-3.15,1,3.57,3.57,0,0,1-1.82-.46h0l-7.63-4.41-.11-.05a4.34,4.34,0,0,1-.54-.42,5.39,5.39,0,0,1-1.47-4.12,12.35,12.35,0,0,1,.63-3.71Z" style="fill:#263238"></path><path d="M300.94,132.14l-2.49-1.44h0c-1.26-.75-2-2.32-2-4.55a12,12,0,0,1,.63-3.71l2.56,1.47a12.1,12.1,0,0,0-.63,3.72,7.42,7.42,0,0,0,.31,2.21,4.19,4.19,0,0,0,1.26,2A4.25,4.25,0,0,0,300.94,132.14Z" style="fill:#37474f"></path><path d="M317.85,148.45a6.14,6.14,0,0,1-5-.23l-4.79-2.76a6,6,0,0,1-2.73-4.73V127.8a5,5,0,0,1,.12-1,3.37,3.37,0,0,1,.1-.34v0c0-.1.06-.2.1-.31s.11-.27.17-.4.08-.18.13-.27.09-.18.14-.27l0-.06L316.39,131a5.64,5.64,0,0,0-.8,2.69v12.92C315.59,148.2,316.56,148.93,317.85,148.45Z" style="fill:#37474f"></path><path d="M343.77,117.45v12.92A6,6,0,0,1,341,135.1l-22.72,13.12-.06,0a.61.61,0,0,1-.14.07l-.15.08-.12,0c-1.29.48-2.26-.25-2.26-1.81V133.72a6,6,0,0,1,2.73-4.73,10.15,10.15,0,0,0,4.83-7.21,3.72,3.72,0,0,1,.52-1.34,2.86,2.86,0,0,1,1-1l4.95-2.86a1.06,1.06,0,0,1,1-.09l.09.06h0a1.9,1.9,0,0,1,.6.76,3.43,3.43,0,0,0,4.77,1.44l5-2.86c1.44-.83,2.61-.23,2.72,1.34A1.69,1.69,0,0,1,343.77,117.45Z" style="fill:#263238"></path><path d="M316.39,131a5.59,5.59,0,0,1,1.93-2,10.15,10.15,0,0,0,4.83-7.21,3.72,3.72,0,0,1,.52-1.34,2.86,2.86,0,0,1,1-1l4.95-2.86s-4.23,2.63-4.83,3.06a4,4,0,0,0-1.35,2.31,10,10,0,0,1-4.9,7.22A6.57,6.57,0,0,0,316.39,131Z" style="fill:#fff;opacity:0.30000000000000004"></path><path d="M318.15,117.26h0l-4.73-2.74a3.89,3.89,0,0,0-.52,1.35,10.13,10.13,0,0,1-4.83,7.2,5.67,5.67,0,0,0-1.93,2L316.39,131a5.59,5.59,0,0,1,1.93-2,10.15,10.15,0,0,0,4.83-7.21,3.72,3.72,0,0,1,.52-1.34Z" style="fill:#455a64"></path><path d="M318.15,117.26h0l-4.73-2.74a3.89,3.89,0,0,0-.52,1.35,8.13,8.13,0,0,1-.21,1,.85.85,0,0,1,0,.17c-.08.28-.17.55-.26.81l-.14.36c-.09.21-.18.42-.28.62s-.17.34-.27.51h0c-.2.35-.42.69-.65,1a9.59,9.59,0,0,1-3,2.72,5.67,5.67,0,0,0-1.93,2,6.72,6.72,0,0,1,2.12-1.84,10.15,10.15,0,0,0,3.2-2.69l9.85,5.67a10.5,10.5,0,0,0,1.84-4.47,3.72,3.72,0,0,1,.52-1.34Z" style="fill:#37474f"></path><path d="M341,112.72,336.25,110a6,6,0,0,0-5.46,0l-5,2.86a3.53,3.53,0,0,1-.94.37l.15.08h0l5.56,3.21.09.06h0a1.9,1.9,0,0,1,.6.76,3.43,3.43,0,0,0,4.77,1.44l5-2.86c1.44-.83,2.61-.23,2.72,1.34A6.07,6.07,0,0,0,341,112.72Z" style="fill:#455a64"></path><path d="M325.05,113.27h0l-.15-.08-4.46-2.57-.08-.05a1,1,0,0,0-1,.08l-5,2.86a3,3,0,0,0-1,1l4.73,2.74h0l5.52,3.18a2.86,2.86,0,0,1,1-1l4.95-2.86a1.06,1.06,0,0,1,1-.09Z" style="fill:#455a64"></path><path d="M325.58,120.35l3.76-2.17c.38-.21.68,0,.68.4v2.12a1.51,1.51,0,0,1-.68,1.18l-3.76,2.17c-.38.22-.68,0-.68-.39v-2.12A1.51,1.51,0,0,1,325.58,120.35Z" style="fill:#fafafa"></path><path d="M334,115.68l-.49-.13-1.13-.65a1.7,1.7,0,0,0-1.55-.05h0l-.25-.07v.46h0a.63.63,0,0,0,.37.49l1.25.72a1.74,1.74,0,0,0,1.55.06.48.48,0,0,0,.27-.39v-.45Z" style="fill:#FFFFFF"></path><path d="M334,115.68l-.49-.13-1.13-.65a1.7,1.7,0,0,0-1.55-.05h0l-.25-.07v.46h0a.63.63,0,0,0,.37.49l1.25.72a1.74,1.74,0,0,0,1.55.06.48.48,0,0,0,.27-.39v-.45Z" style="opacity:0.2"></path><path d="M330.79,114.41c-.4.23-.35.63.1.89l1.25.72a1.7,1.7,0,0,0,1.55.06c.4-.23.36-.63-.1-.89l-1.25-.72A1.7,1.7,0,0,0,330.79,114.41Z" style="fill:#FFFFFF"></path><path d="M316.82,125.56l-.74-.19-1.68-1a2.56,2.56,0,0,0-2.3-.09l0,0-.38-.1v.68h0a.93.93,0,0,0,.55.73l1.86,1.08a2.53,2.53,0,0,0,2.3.08.71.71,0,0,0,.41-.58v-.66Z" style="fill:#FFFFFF"></path><path d="M312.1,123.66c-.59.35-.53.94.15,1.33l1.86,1.08a2.53,2.53,0,0,0,2.3.08c.6-.34.53-.94-.15-1.33l-1.86-1.07A2.56,2.56,0,0,0,312.1,123.66Z" style="fill:#FFFFFF"></path><path d="M312.1,123.66c-.59.35-.53.94.15,1.33l1.86,1.08a2.53,2.53,0,0,0,2.3.08c.6-.34.53-.94-.15-1.33l-1.86-1.07A2.56,2.56,0,0,0,312.1,123.66Z" style="fill:#fff;opacity:0.4"></path><path d="M338.35,111.94a5.08,5.08,0,0,0-4.53,0h-1v1.32a1.6,1.6,0,0,0,.95,1.32,5,5,0,0,0,4.55,0,1.6,1.6,0,0,0,.95-1.32v-1.32Z" style="fill:#FFFFFF"></path><path d="M333.81,110.63c-1.26.72-1.26,1.9,0,2.63a5.06,5.06,0,0,0,4.55,0c1.26-.73,1.26-1.91,0-2.63A5,5,0,0,0,333.81,110.63Z" style="fill:#FFFFFF"></path><path d="M333.81,110.63c-1.26.72-1.26,1.9,0,2.63a5.06,5.06,0,0,0,4.55,0c1.26-.73,1.26-1.91,0-2.63A5,5,0,0,0,333.81,110.63Z" style="fill:#fff;opacity:0.4"></path><path d="M329,113.56a1.42,1.42,0,0,0-1.24,0h-.29v.38a.45.45,0,0,0,.27.37,1.44,1.44,0,0,0,1.28,0,.44.44,0,0,0,.26-.37v-.38Z" style="fill:#FFFFFF"></path><path d="M329,113.56a1.42,1.42,0,0,0-1.24,0h-.29v.38a.45.45,0,0,0,.27.37,1.44,1.44,0,0,0,1.28,0,.44.44,0,0,0,.26-.37v-.38Z" style="opacity:0.2"></path><path d="M331.87,112.46v-.38h-.29a1.42,1.42,0,0,0-1.24,0h-.29v.38a.45.45,0,0,0,.27.37,1.44,1.44,0,0,0,1.28,0A.45.45,0,0,0,331.87,112.46Z" style="fill:#FFFFFF"></path><path d="M331.87,112.46v-.38h-.29a1.42,1.42,0,0,0-1.24,0h-.29v.38a.45.45,0,0,0,.27.37,1.44,1.44,0,0,0,1.28,0A.45.45,0,0,0,331.87,112.46Z" style="opacity:0.2"></path><path d="M327.76,113.19c-.36.2-.36.53,0,.74a1.44,1.44,0,0,0,1.28,0c.35-.21.35-.54,0-.74A1.38,1.38,0,0,0,327.76,113.19Z" style="fill:#FFFFFF"></path><ellipse cx="330.96" cy="112.08" rx="0.91" ry="0.52" style="fill:#FFFFFF"></ellipse><path d="M340.33,127.17a3.18,3.18,0,0,0,.39-1.43,1.27,1.27,0,0,0-.4-1l1-1.8a2.16,2.16,0,0,1,.73,1.84,6.16,6.16,0,0,1-.84,2.94Z" style="fill:#263238"></path><path d="M337.62,130.59a1.59,1.59,0,0,1-.62-.12l1.05-1.8a.86.86,0,0,0,.32.05,1.53,1.53,0,0,0,.76-.22,3.2,3.2,0,0,0,1-1.06l.93.54a6.31,6.31,0,0,1-2.13,2.19A2.7,2.7,0,0,1,337.62,130.59Z" style="fill:#263238"></path><path d="M336.73,130.31a2.2,2.2,0,0,1-.73-1.85,6.34,6.34,0,0,1,.84-2.94l.93.54a3.14,3.14,0,0,0-.39,1.43,1.3,1.3,0,0,0,.39,1Z" style="fill:#263238"></path><path d="M340.42,125.82a2.88,2.88,0,0,1-.4,1.35,2.81,2.81,0,0,1-1,1,1,1,0,0,1-1,.1,1,1,0,0,1-.4-.89,2.73,2.73,0,0,1,.4-1.34,2.84,2.84,0,0,1,1-1,.84.84,0,0,1,1.37.79Z" style="fill:#263238"></path><path d="M337,125.25a6.26,6.26,0,0,1,2.13-2.2,2.79,2.79,0,0,1,1.35-.41,1.51,1.51,0,0,1,.61.12l-1,1.8a.88.88,0,0,0-.33-.06,1.54,1.54,0,0,0-.75.23,3.28,3.28,0,0,0-1.05,1Z" style="fill:#263238"></path><path d="M336.12,133.23l.73-.43c.15-.08.28,0,.28.16v.85a.6.6,0,0,1-.28.47l-.73.43c-.15.08-.27,0-.27-.16v-.85A.59.59,0,0,1,336.12,133.23Z" style="fill:#263238"></path><path d="M341.24,130.27l.74-.42c.15-.09.27,0,.27.15v.85a.58.58,0,0,1-.27.47l-.74.43c-.15.09-.27,0-.27-.16v-.85A.61.61,0,0,1,341.24,130.27Z" style="fill:#263238"></path><path d="M336.12,121.4l.73-.43c.15-.08.28,0,.28.16V122a.6.6,0,0,1-.28.47l-.73.43c-.15.09-.27,0-.27-.16v-.85A.61.61,0,0,1,336.12,121.4Z" style="fill:#263238"></path><path d="M341.24,118.44,342,118c.15-.09.27,0,.27.15V119a.61.61,0,0,1-.27.48l-.74.42c-.15.09-.27,0-.27-.16v-.85A.61.61,0,0,1,341.24,118.44Z" style="fill:#263238"></path><path d="M333.52,124.12v11.42a1.8,1.8,0,0,1-.82,1.42L319,144.89c-.45.26-.82,0-.82-.48V133a1.84,1.84,0,0,1,.82-1.42l13.73-7.92C333.16,123.38,333.52,123.6,333.52,124.12Z" style="fill:#455a64"></path><path d="M319.43,134.42a.16.16,0,0,1-.16-.15v-1.48a.16.16,0,0,1,.08-.14l1.28-.74a.16.16,0,0,1,.22.06.15.15,0,0,1-.06.21l-1.2.7v1.39A.16.16,0,0,1,319.43,134.42Z" style="fill:#e0e0e0"></path><path d="M319.43,143.3l-.08,0a.18.18,0,0,1-.08-.14v-1.48a.16.16,0,0,1,.16-.16.16.16,0,0,1,.16.16v1.21l1-.61a.17.17,0,0,1,.22.06.16.16,0,0,1-.06.22l-1.28.74Z" style="fill:#e0e0e0"></path><path d="M332.24,127a.16.16,0,0,1-.16-.16v-1.21l-1,.61a.17.17,0,0,1-.22-.06.17.17,0,0,1,.06-.22l1.28-.74a.22.22,0,0,1,.16,0,.16.16,0,0,1,.08.14v1.48A.16.16,0,0,1,332.24,127Z" style="fill:#e0e0e0"></path><path d="M331,136.64a.17.17,0,0,1-.14-.08.16.16,0,0,1,.06-.21l1.2-.7v-1.38a.16.16,0,1,1,.32,0v1.47a.16.16,0,0,1-.08.14l-1.28.74A.12.12,0,0,1,331,136.64Z" style="fill:#e0e0e0"></path><path d="M340.57,127.31a3.18,3.18,0,0,0,.39-1.43,1.27,1.27,0,0,0-.4-1l1-1.8a2.19,2.19,0,0,1,.73,1.85,6.34,6.34,0,0,1-.84,2.94Z" style="fill:#FFFFFF"></path><path d="M337.86,130.73a1.59,1.59,0,0,1-.62-.12l1-1.8a.91.91,0,0,0,.33.05,1.56,1.56,0,0,0,.76-.22,3.2,3.2,0,0,0,1-1.06l.93.54a6.43,6.43,0,0,1-2.13,2.2A2.79,2.79,0,0,1,337.86,130.73Z" style="fill:#FFFFFF"></path><path d="M337,130.45a2.2,2.2,0,0,1-.73-1.85,6.34,6.34,0,0,1,.84-2.94l.93.54a3,3,0,0,0-.39,1.43,1.3,1.3,0,0,0,.39,1Z" style="fill:#FFFFFF"></path><path d="M340.65,126a2.86,2.86,0,0,1-.39,1.34,2.89,2.89,0,0,1-1,1,1,1,0,0,1-1,.1,1,1,0,0,1-.4-.89,2.73,2.73,0,0,1,.4-1.34,2.84,2.84,0,0,1,1-1,1,1,0,0,1,1-.09A1,1,0,0,1,340.65,126Z" style="fill:#FFFFFF"></path><path d="M337.24,125.39a6.26,6.26,0,0,1,2.13-2.2,2.79,2.79,0,0,1,1.35-.41,1.54,1.54,0,0,1,.61.12l-1,1.8a.88.88,0,0,0-.33,0,1.52,1.52,0,0,0-.75.22,3.28,3.28,0,0,0-1,1Z" style="fill:#FFFFFF"></path><path d="M336.36,133.37l.73-.43c.15-.08.28,0,.28.16V134a.6.6,0,0,1-.28.47l-.73.43c-.15.08-.28,0-.28-.16v-.85A.62.62,0,0,1,336.36,133.37Z" style="fill:#FFFFFF"></path><path d="M341.48,130.41l.74-.42c.15-.09.27,0,.27.15V131a.58.58,0,0,1-.27.47l-.74.43c-.15.09-.27,0-.27-.16v-.85A.61.61,0,0,1,341.48,130.41Z" style="fill:#FFFFFF"></path><path d="M336.36,121.54l.73-.42c.15-.09.28,0,.28.15v.85a.59.59,0,0,1-.28.47l-.73.43c-.15.09-.28,0-.28-.16V122A.62.62,0,0,1,336.36,121.54Z" style="fill:#FFFFFF"></path><path d="M341.48,118.58l.74-.42c.15-.09.27,0,.27.16v.84a.61.61,0,0,1-.27.48l-.74.42c-.15.09-.27,0-.27-.16v-.85A.61.61,0,0,1,341.48,118.58Z" style="fill:#FFFFFF"></path></g></g><g id="freepik--Character--inject-172"><g id="freepik--Bottom--inject-172"><path d="M423.91,382.07c.07,1.55.38,2.13-1.45,3.61s-5.92,2.3-9.08,1.59a8.41,8.41,0,0,1-5.17-2.83,42.48,42.48,0,0,1-3.12-4.29c-.58-.68-3.17-1.9-5.67-2.88s-7.67-3.11-9.62-7.22a10,10,0,0,1-.86-7.16Z" style="fill:#263238"></path><path d="M406.51,361.53c5.14,3.05,9.69,11.06,16.42,8.28.51,4,1.77,8.28,1,12.26-2.76,3.72-9.11,4.69-12.89,2.26-1.92-1.5-3-3.3-4.89-4.89a18,18,0,0,0-5-2.79,53.16,53.16,0,0,1-6.09-3C383.6,366,388.45,350.8,406.51,361.53Z" style="fill:#455a64"></path><path d="M393.72,372.67c1.09-5.51,7.47-12.78,12.54-11.29-1.51-1.64-5.81-3.55-10-3.8s-7.57,1.86-7.62,6.15S392.06,371.72,393.72,372.67Z" style="fill:#fafafa"></path><path d="M387.09,399A10.78,10.78,0,0,1,387,402c-.2,1.13-3.26,1.9-4.26,2.09-2.09.4-4.11.66-7,1.07a26.16,26.16,0,0,0-6.84,2c-2.29,1-4.57,2.07-6.94,2.88a26.62,26.62,0,0,1-16.94.56c-7-2.07-7-5.7-7-8S387.09,399,387.09,399Z" style="fill:#263238"></path><path d="M385.52,384.36c1.27,4.77,2.68,11.92,1.49,15.62-2.78,2.85-6.95,2.74-11,3.42-3.82.64-5.42,1.33-9.76,3.36-7.78,3.66-21.73,5.21-27.52-2.08-5.86-9.79,23.08-8.25,26.26-19.89C366.12,380.55,380.31,385.66,385.52,384.36Z" style="fill:#455a64"></path><path d="M360.1,408.86c-.17-4-1.17-14.31-9.38-14.19-7.06,2-13.17,3.8-13,7.18s1.57,4.29,3.92,5.83S350.66,411.63,360.1,408.86Z" style="fill:#fafafa"></path><path d="M426.13,327.83c-3-41.07.75-62.29-2.21-95.36l-62.53.38s-1.58,74.9-1.32,83.52c0,8.73,4.05,63.24,3.91,69.39,14.14,7.41,23.12,2.24,23.12,2.24.08-7.94,7-38.65,4-58.08l3-32.8s8.52,59.05,9.83,75c4.09,6.35,17.66,4.95,19.74,1.21C423.7,373.29,427.22,339.92,426.13,327.83Z" style="fill:#37474f"></path><path d="M394.13,297.12l3.23-31.58s10.88-1.76,17.33-9.47c-1.85,6.24-8.78,11.54-13.13,13l-4.89,26.76,1.24,24.87Z" style="fill:#263238"></path><path d="M401.92,291.08a196.63,196.63,0,0,0,1.83,22.53c1.3,8.3,4.53,51.88,5.28,62.19-.32-.1-.64-.23-1-.36-.8-11.06-3.95-53.53-5.23-61.68A196.33,196.33,0,0,1,401,291.12c-.33-8.2-.64-15.95-1.09-20l.92-.1C401.27,275.1,401.59,282.86,401.92,291.08Z" style="fill:#263238"></path><path d="M371.19,388.66c-.84-18.58-2.88-60.78-2.23-79.54.78-22.41,2.29-57.27,4.43-71.71l.92.14c-2.13,14.39-3.65,49.22-4.42,71.6-.65,18.84,1.41,61.39,2.23,79.76Z" style="fill:#263238"></path><path d="M372,260.44c-4.95-5.22-4-15.89-3.42-22.54.05-.56.1-1.09.14-1.58l-.93-.08c0,.49-.09,1-.13,1.57-.64,7.1-1.67,18.65,4.31,23.92Z" style="fill:#263238"></path></g><g id="freepik--Top--inject-172"><path id="freepik--Arm--inject-172" d="M415.09,156c7.9,1.12,10.31,3.65,12.26,7.15,3.06,5.51,3,13.9-2.9,33.8Z" style="fill:#37474f"></path><g id="freepik--Head--inject-172"><path d="M385.28,147.24l.22,9.94c7.62,3.14,14.85,4.84,20.42.28l-.66-13.72Z" style="fill:#b16668"></path><path d="M373.67,122.36a73.64,73.64,0,0,0-5,8.7,9.74,9.74,0,0,0,3.95,2.26Z" style="fill:#9a4a4d"></path><path d="M386.32,105.54c-6.56.19-13.86,5.09-13,17.33.18,2.51-.82,4.75-1.08,8.33-.6,8.62,1.34,13.1,2.75,14.7,4,2.41,8.15,2.95,13.89,1.67,4.37-1,15.46-3.85,20.37-10.59,5.78-7.94,7.74-19,2.22-23.83C403.71,106.33,389.8,105.45,386.32,105.54Z" style="fill:#b16668"></path><path d="M375,145.9c1.52,1.87,6.7,3.21,10.3,3l-.06-2.75S378.2,147.24,375,145.9Z" style="fill:#9a4a4d"></path><path d="M381.11,116.25a5.12,5.12,0,0,0,.67,3.06,6.19,6.19,0,0,0,3.39,2.69,12.17,12.17,0,0,0-1.66,5.47,3,3,0,0,0,.29,1.75,1.14,1.14,0,0,0,2.06.06,15,15,0,0,1,1.85-2.81,5.61,5.61,0,0,1,3.56-1.75c5.11-.3,4.78,6.46,2.61,9.09-3.55,4.29-6.16,1.34-6.16,1.34s-.43,8.54,4.34,11.69c0,0,7.65,1.83,13.18-.72,2.17-4.35,4.36-7.72,6.72-12.06,5.59-10.3,5.07-20.12,1.21-23-.43-4.3-4.26-7.12-8-8.65-5.11-2.1-10.24-.64-15.55-.89a17.77,17.77,0,0,1-7.77-2.21c-1.06-.58-3.77-1.58-4.8-1a2.22,2.22,0,0,0-.88,1.1,5.61,5.61,0,0,0,.7,4.24,5.1,5.1,0,0,0-4.21,1.46c-1.74,1.52-2.23,4.2-1.64,6.88C371.37,113.65,373.93,118,381.11,116.25Z" style="fill:#263238"></path></g><g id="freepik--Chest--inject-172"><path d="M424.17,167.9c-2.89-7.5-6.21-11-9.08-11.91-3.19-.49-9.31-1.36-9.31-1.36-.93,2.72-12.46,4.81-20.39.94-2.25.38-11.35,1.69-13.23,2.13-5.39,1.27-9.07,6.71-9.56,26.18-.58,22.4-.8,29.89-1.82,52.91,5.45,6.21,19,8.7,29.19,9.14,22,.94,34.51-8.92,34.51-8.92-.45-11.16-.79-15.68-.72-25,.11-14.51,1.45-19.83,1.76-27.74C425.78,177.72,425.78,172.09,424.17,167.9Z" style="fill:#FFFFFF"></path></g><g id="freepik--chest--inject-172" style="opacity:0.1"><path d="M424.17,167.9c-2.89-7.5-6.21-11-9.08-11.91-3.19-.49-9.31-1.36-9.31-1.36-.93,2.72-12.46,4.81-20.39.94-2.25.38-11.35,1.69-13.23,2.13-5.39,1.27-9.07,6.71-9.56,26.18-.58,22.4-.8,29.89-1.82,52.91,5.45,6.21,19,8.7,29.19,9.14,22,.94,34.51-8.92,34.51-8.92-.45-11.16-.79-15.68-.72-25,.11-14.51,1.45-19.83,1.76-27.74C425.78,177.72,425.78,172.09,424.17,167.9Z"></path></g><g id="freepik--arm--inject-172"><path d="M313.86,174.06c1.4,4.29,5.67,18.16,10.78,25,2.44,3.25,6.46,3.06,16.51-1.2,10.91-4.62,28.42-10.5,28.42-10.5,6.62-7.48,9.2-24.36,4.74-29.53-8.39,2.45-11.7,3.55-19.41,8.22-13.15,8-20.63,11.61-20.63,11.61-2.37-3.63-8.19-13.79-10.16-17.67-1.42-2.81-2.85-5.92-2.83-6.88.06-2.26.58-3.42.74-5.65a84.83,84.83,0,0,1,.87-8.59,2.31,2.31,0,0,0-.16-1.7,1.71,1.71,0,0,0-2.35-.07,6,6,0,0,0-1.64,2.42c-.45,1-.89,2-1.34,3-.21.46-.52,1-1,1-1.42,0-1.69-2.29-2-3.26a39.51,39.51,0,0,1-1-5.3c-.16-1.1-.26-2.21-.37-3.31a10,10,0,0,1,.15-3.18c.27-1.28,1-2.41,1.14-3.7a2.2,2.2,0,0,0-.29-1.57,1.09,1.09,0,0,0-1.84-.15,49,49,0,0,0-3,4.29,6.81,6.81,0,0,0-.84,3.22c-.06.95.09,2.1-.62,2.86a9.54,9.54,0,0,1-1,.84,4.42,4.42,0,0,0-1.61,3.3,2.92,2.92,0,0,0-2,3.11c.18,1.24-1.13,1.36-1.38,2.53a5.19,5.19,0,0,0,.08,2q.5,2.75,1.21,5.43a9,9,0,0,0,1.54,3c1.93,2.67,3.9,5,5.11,8.06C311.28,165.67,312.78,170.74,313.86,174.06Z" style="fill:#b16668"></path><path d="M334.27,177.65c-2.89,2.74-4.87,8.43-4.87,8.43s.17-6.23,3.61-10.42Z" style="fill:#9a4a4d"></path><path d="M374.84,157.23c-9.07,1.4-12.34,2.45-16.88,5.48L340.15,174.6s-3.14,6.5-1.77,13.1c1.45,7,7.2,9.79,9.13,8.91l23.26-8.4a39.9,39.9,0,0,0,6.38-13.63C378.25,170.43,379.08,160.15,374.84,157.23Z" style="fill:#37474f"></path><path d="M343.4,172.43s-.78-.74-2.55-.17-6.54,4-7.47,5.48c-2.37,3.7-2.76,9.07-1.43,14.16s5.38,9.22,7.33,9.08a15.79,15.79,0,0,0,6.68-1.85c2.35-1.31,4.26-2.42,3.72-3.72l-1.33.73s-4.18-.58-7.07-7,.2-15.37.2-15.37Z" style="fill:#263238"></path></g></g></g></g><g id="freepik--characters-1--inject-172"><g id="freepik--Characters--inject-172"><g id="freepik--character--inject-172"><g id="freepik--bottom--inject-172"><path d="M155.65,310.84c.56,11.12,1.35,26.06.44,29.57-.15.59,5.89,3.39,10.13,2.62s5.35-2.23,5.35-2.67c0-1.5,1.28-4.31,1.46-5.8,1.15-9.6,2.06-17.26,3.15-24Z" style="fill:#ffa8a7"></path><path d="M218,316.8l-19.34-2.46c1.58,9.48,3.25,19.32,4.5,26a34.82,34.82,0,0,0,1.47,5.89c.72,4.28,11.2,5.27,13.62-1.42l-.18-5.8C218.08,333.65,218,324.77,218,316.8Z" style="fill:#ffa8a7"></path><path d="M132.55,361.27a3,3,0,0,0,1.07,2.88c1.71,1.43,6.8,4,13.48,3.26s8.45-2.19,11.25-4.12,6.32-6.16,9.35-6.76c2.81-.57,6.15-1.44,7.32-2.86.77-.94.58-3.87.58-3.87Z" style="fill:#263238"></path><path d="M173.19,333.29a1.18,1.18,0,0,1,1.12.88c.19,1,.4,4.57.82,6.23a39.39,39.39,0,0,1,.33,10.66c-.38,1.88-6.19,3-9.12,4s-5.42,4.17-8.47,6.51a21.14,21.14,0,0,1-12.37,4.19c-5.15-.07-10.93-1.71-12.23-4-1.62-2.82-1.83-5.52,5.83-8.81,1.45-.63,6.6-4.47,8.29-5.57a41.39,41.39,0,0,0,5-4c.68-.61,1.35-1.23,2-1.9a6,6,0,0,0,1.08-2c.46-1.33.28-2.78.53-4.16a.88.88,0,0,1,.14-.36.85.85,0,0,1,.35-.19,9.41,9.41,0,0,1,3.74-.15,15.66,15.66,0,0,1,3.75.84,3.16,3.16,0,0,1,1.72,1.06,2.47,2.47,0,0,1,.32,1.36,10.91,10.91,0,0,0,0,1.4.77.77,0,0,0,.2.46c.25.26.67.06.89-.13a18.42,18.42,0,0,0,2.08-2.33c.37-.42,2-.68,2.44-1s.94-1.08,1.31-1.42S173.16,333.87,173.19,333.29Z" style="fill:#37474f"></path><path d="M157.87,361.6a18.45,18.45,0,0,0,3.36-2.93h0s-8,3.36-11.56,1c-2.32-1.53-1.19-3.37-1.13-4s-5.67-3.15-7.94-3.43h0c-.63.33-1.16.6-1.5.74-7.08,2.81-7.29,5.43-6.55,8.27,1.3,2.27,6.2,4.62,12.85,4.67A21.77,21.77,0,0,0,157.87,361.6Z" style="fill:#455a64"></path><path d="M149.19,354c-4.77,1.77-2.75,2.63-1.42,2.82s8.31-5.09,13.21-8.72c5.12-3.77,8.87-8.16,10.78-9.55.7-.51,2.17-1.39,2.85-2-.12-1-.21-1.89-.3-2.37a1.74,1.74,0,0,0-1.1-1.17l-.29,1.87a5.65,5.65,0,0,1-1.64.87,6.36,6.36,0,0,0-2.11,1.56,18.42,18.42,0,0,1-2.08,2.33C162.9,344.59,154,352.22,149.19,354Z" style="fill:#263238"></path><path d="M148.11,356.14a.49.49,0,0,0,.3-.1.44.44,0,0,0,.07-.63,11.58,11.58,0,0,0-8.66-3.33.46.46,0,0,0-.42.49.46.46,0,0,0,.51.4,10.72,10.72,0,0,1,7.84,3A.46.46,0,0,0,148.11,356.14Z" style="fill:#f0f0f0"></path><path d="M152.68,353.11a.5.5,0,0,0,.31-.1.43.43,0,0,0,.08-.62,11.52,11.52,0,0,0-8.57-3.52.45.45,0,1,0,.07.89,10.7,10.7,0,0,1,7.76,3.17A.5.5,0,0,0,152.68,353.11Z" style="fill:#f0f0f0"></path><path d="M156.39,350.07a.49.49,0,0,0,.3-.1.44.44,0,0,0,.07-.63A11.58,11.58,0,0,0,148.1,346a.44.44,0,0,0-.42.48.45.45,0,0,0,.51.4,10.76,10.76,0,0,1,7.84,3A.46.46,0,0,0,156.39,350.07Z" style="fill:#f0f0f0"></path><path d="M159.79,347.53a.48.48,0,0,0,.3-.09.43.43,0,0,0,.1-.62,11.57,11.57,0,0,0-8.5-3.68.46.46,0,0,0-.44.47.44.44,0,0,0,.49.42,10.67,10.67,0,0,1,7.69,3.32A.5.5,0,0,0,159.79,347.53Z" style="fill:#f0f0f0"></path><path d="M163.46,344.87a.45.45,0,0,0,.29-.09.43.43,0,0,0,.11-.62c-1.73-2.29-5.81-3.92-9.32-3.72a.45.45,0,1,0,.06.89c3.15-.18,7,1.32,8.5,3.35A.46.46,0,0,0,163.46,344.87Z" style="fill:#f0f0f0"></path><path d="M203.67,369.31c.12,4.39.72,7.32,2.24,9.94s4.52,3.53,7.61,2.87,7.08-2.54,8.08-6.3.91-6.36.35-10.45Z" style="fill:#263238"></path><path d="M218.09,339c1.06.36,1.13,6.37,1.66,12.29.57,6.35,1.65,8.29,2.17,13.5.6,5.94.11,7.91-2.15,11.42s-9.94,6.79-13.5,1.55c-2.9-4.28-2.78-8.25-2.31-14.15a120.85,120.85,0,0,0,.43-14.09c-.1-4.44-2.33-8.73-1.21-9.19-.21.08.57,3.09.64,3.35a5.42,5.42,0,0,0,.6,1.66c.57.85.9-.49.92-1,0-.87-.25-1.58.48-2.29a5.46,5.46,0,0,1,1.92-1,11.57,11.57,0,0,1,2.32-.57,25.65,25.65,0,0,1,4.88-.11,2.38,2.38,0,0,1,1.85.82,1.33,1.33,0,0,1,.17.47c.1.59,0,1.18.12,1.77,0,.16.08.58.23.68s.43.07.44,0S218.18,340,218.09,339Z" style="fill:#37474f"></path><path d="M221.73,362.74c.1.86.53,6.21-1.09,7.18s-2.55-3.42-2.55-3.42-4-1.33-9.93,1c.27.92-.74,3.92-2.33,3.23s-1.9-6.52-1.91-6.61c-.43,5.67-.46,9.49,2.35,13.65,3.56,5.24,11.25,2,13.5-1.55s2.75-5.48,2.15-11.42C221.86,364.18,221.83,363.28,221.73,362.74Z" style="fill:#455a64"></path><path d="M217.62,366.86c-.05,2.14,1.95,1.47,2.35-1.53.6-4.5-.41-8.85-.22-14.05-.53-5.92-.4-12.16-1.66-12.29,0,1-.34,5.08-.34,5.08.24,4.42,1.27,9.62.93,14.16C218.39,362.23,217.66,364.72,217.62,366.86Z" style="fill:#263238"></path><path d="M208.84,367.44c-.35-2.12-1-2.74-1.33-6.74s-2.33-11.2-3-15.54c-.19-1.35-1.28-4.79-1.28-4.84-.81.35-.14,2.85.39,5.53s.9,4.34,1.21,6.91c.91,5.13.89,10.55,1.51,13.51S209.18,369.55,208.84,367.44Z" style="fill:#263238"></path><path d="M208.33,367.53a.61.61,0,0,0,.18,0,15.32,15.32,0,0,1,9.75-.67.48.48,0,0,0,.59-.3.46.46,0,0,0-.32-.57,16,16,0,0,0-10.43.73.45.45,0,0,0-.22.6A.49.49,0,0,0,208.33,367.53Z" style="fill:#f0f0f0"></path><path d="M207.2,363.24l.16,0s5.75-2.35,11.39-.89a.47.47,0,0,0,.57-.33.44.44,0,0,0-.33-.55,20.9,20.9,0,0,0-12,.94.45.45,0,0,0-.24.6A.47.47,0,0,0,207.2,363.24Z" style="fill:#f0f0f0"></path><path d="M219.51,358.85a.47.47,0,0,0,.41-.29.45.45,0,0,0-.28-.59c-5.59-2-13.12.3-13.36.41a.46.46,0,0,0-.22.61.48.48,0,0,0,.63.21c.05,0,7.42-2.28,12.62-.38A.36.36,0,0,0,219.51,358.85Z" style="fill:#f0f0f0"></path><path d="M218.72,355a.47.47,0,0,0,.41-.29.46.46,0,0,0-.27-.59c-6.15-2.36-12.65.75-12.88.87a.46.46,0,0,0-.18.62.48.48,0,0,0,.64.18c.05,0,6.35-3,12.08-.82Z" style="fill:#f0f0f0"></path><path d="M218.49,350.3a.46.46,0,0,0,.41-.28.45.45,0,0,0-.26-.59c-5.76-2.3-12.72.87-13,1a.45.45,0,0,0-.19.62.47.47,0,0,0,.63.19c.06,0,6.82-3.1,12.17-1A.39.39,0,0,0,218.49,350.3Z" style="fill:#ebebeb"></path><path d="M182.53,238.88l-3,29.08s.47,9.11.17,17.3-3.82,31.13-5.53,39.84a19.18,19.18,0,0,1-18.3.68s-3.31-47.53-3.71-59c-.54-15.28,0-58.22.34-76.44l58.7-.63s2,14.17,2.53,24.51c.55,9.71,2,58,2,58,1.91,11.32,3.16,25.14,2.71,57.67A17.86,17.86,0,0,1,201.31,331s-7.54-32.31-10.41-45.4c-1.37-6.25-5.68-32.32-8.37-46.71" style="fill:#37474f"></path><path d="M159.78,227.21l-.34,22.39c.11,3.56-.25,11.4-.11,15s.07,5.95.25,10.84,1.2,32.48,1.33,39.64c-1.56-7.86-2.35-31.39-3-39.86-.23-7.67.09-15.22.46-25.62S159.27,234.34,159.78,227.21Z" style="fill:#263238"></path><path d="M194.11,227.21c2.32,11.83,5.62,42.28,6.31,50.42S207.53,318,208,326.21c-1.09-8.14-8.47-40.25-9.24-48.45S195.2,242.11,194.11,227.21Z" style="fill:#263238"></path><path d="M177.51,218.86l5,21.58-3,29.08.43-23.88-5.71-24.17s-9.62-1.32-12.39-11.21C167.51,217,177.51,218.86,177.51,218.86Z" style="fill:#263238"></path></g><g id="freepik--top--inject-172"><path d="M115.35,141.78c-.75-.52-5.37-4.48-8.57-6.62-2.27-1.52-5.7-2.64-8.39-1.63-.5.18-1,.44-1.47.59a9.28,9.28,0,0,1-3.16.15c-3.16-.11-5.72,2.3-8,4.21a18.6,18.6,0,0,0-2.81,2.8A6.84,6.84,0,0,0,81.85,143c-.22.62-.33,1.35-.49,2-.35,1.42,2.28,2.51,3.27,2.82,1.49.47,3.05.62,4.58,1a33.24,33.24,0,0,0,7.37.83c2,0,4.89-1.22,6.66.17a45.8,45.8,0,0,1,4.43,4.12C112.71,151.83,115.44,147.94,115.35,141.78Z" style="fill:#ffa8a7"></path><path d="M161.76,119.81c-7,.9-8.73,2.08-15.78,10.5-5.95,7.11-16.47,20.62-16.47,20.62l-15.4-10.13s-.87,8.51-8.3,11.21a193.48,193.48,0,0,0,13.69,14.83c6.67,6.3,10.61,8.91,13.85,8.86,4-.07,8.46-3.75,16.81-12.45,4.4-4.59,11.53-14.28,11.53-14.28Z" style="fill:#37474f"></path><g id="freepik--top--inject-172"><path id="freepik--chest--inject-172" d="M191.56,118.69a104.44,104.44,0,0,1,18,4s4.11,8.85,3.3,33.67c-.12,3.68-.69,12.43-.87,20.07a149.65,149.65,0,0,0,1,21.59s-10.37,10.62-35.48,9.34c-19.71-1-25.47-8.61-25.47-8.61s.5-31,.66-45.49c.21-19.08,5-30,9.13-33.4a94,94,0,0,1,14.46-1.54C182.18,118.33,191.56,118.69,191.56,118.69Z" style="fill:#455a64"></path><g id="freepik--head--inject-172"><path d="M168.51,97a39.84,39.84,0,0,0,4.28,11.19,4.93,4.93,0,0,0,2.75,2.41l.15-7.65,0-5.34a4.28,4.28,0,0,0,4-4c.24-3.66,3.32-7,3.15-8.13l23.42,3.23s2.66-6.33-.49-11.57c-3-5-7.67-8.35-16.3-8.29-10.53.08-16.22,5-17.16,9.22h0a7.53,7.53,0,0,0-4.13,3.58C167.12,83.5,166.25,87,168.51,97Z" style="fill:#263238"></path><path d="M205.9,86.24a18.92,18.92,0,0,0-3.59-8.32,8.74,8.74,0,0,1-2.94,2.46,12.5,12.5,0,0,1-2.61.94,17.33,17.33,0,0,1-11.07-.58,13.83,13.83,0,0,0-2.45-1c-.43-.09-1-.07-1.18.32a1,1,0,0,0-.08.55c.06,1.24.28,2.46.27,3.7a6.37,6.37,0,0,1-1.32,3.92c-.49.61-1.1,1.11-1.55,1.74-.84,1.17-.66,2.21-.78,3.52A3.29,3.29,0,0,1,177.37,96a1.66,1.66,0,0,1-1.73-.24c-1-.8-1.33-2.25-2.39-3.07a4.48,4.48,0,0,0-3.64-.83,5.64,5.64,0,0,0-4,4.11,8.36,8.36,0,0,0,.82,5.85,7.7,7.7,0,0,0,2.35,2.83l.07,0c1.8,1.22,4.31,1.22,5.58-.77l.15,15.28c-1,6,1,10.59,2.15,14.35,3.75-5.88,12.52-6.62,17.19-13.18l.15-4.36s1.94-.15,4-.49c4.68-.76,6.9-3.88,7.71-7.74a45.79,45.79,0,0,0,.71-10.73A89,89,0,0,0,205.9,86.24Z" style="fill:#ffa8a7"></path><path d="M202.18,120.62c-1,1.89-1.12,3.7-6.26,8.72a48.75,48.75,0,0,1-8.71,7.07,53.2,53.2,0,0,0-5.81-4.51,2.89,2.89,0,0,0-1.34-.45,2.61,2.61,0,0,0-1.51.61,13.23,13.23,0,0,0-1.83,1.51,19.31,19.31,0,0,1,2.31-3.92,7.68,7.68,0,0,1,2.81-2.23,43.38,43.38,0,0,0,9.26-5.87,27.25,27.25,0,0,0,2.9-3.69l.06-1.42Z" style="fill:#37474f"></path><path d="M176.72,133.57c-.63-3.94-1.35-5.49-1.67-7.14a50.2,50.2,0,0,1-.48-7.21v-3.68l-5.41,3.31s-3,7-.86,13.92c1.07-.74,3.68-2.21,5.34-2.27C175.45,130.43,176.72,133.57,176.72,133.57Z" style="fill:#37474f"></path><path d="M194.06,116c-6-.19-9.42-1.13-11.31-2.39a13.85,13.85,0,0,1-5.52-8.73c-.14,2.94.91,8.19,4.92,10.54A21.2,21.2,0,0,0,194,117.86Z" style="fill:#f28f8f"></path><path d="M189.24,87.77l-3.9,1.6a2.21,2.21,0,0,1,1.19-2.82A2,2,0,0,1,189.24,87.77Z" style="fill:#263238"></path><path d="M203.43,88.76l-4-1.6a2,2,0,0,1,2.71-1.22A2.24,2.24,0,0,1,203.43,88.76Z" style="fill:#263238"></path><path d="M186.61,93.16a1.71,1.71,0,0,0,1.77,1.67,1.72,1.72,0,1,0-1.77-1.67Z" style="fill:#263238"></path><path d="M200,92.82a1.72,1.72,0,1,0,3.44-.09,1.72,1.72,0,0,0-3.44.09Z" style="fill:#263238"></path><path d="M194.06,91.06,194.9,102l6.29-2.07A25.43,25.43,0,0,0,194.06,91.06Z" style="fill:#f28f8f"></path><path d="M189.76,103.42l6,1.87a3.09,3.09,0,0,1-3.88,2.17A3.28,3.28,0,0,1,189.76,103.42Z" style="fill:#b16668"></path><path d="M190.4,104.48a3.24,3.24,0,0,0-.76,0,3.26,3.26,0,0,0,2.23,3,3.15,3.15,0,0,0,1,.12A2.88,2.88,0,0,0,190.4,104.48Z" style="fill:#f28f8f"></path></g></g><g id="freepik--arm--inject-172"><g id="freepik--arm--inject-172"><path d="M205.52,220.65a3.79,3.79,0,0,0-.74.92,1,1,0,0,0,.11,1.1,1.18,1.18,0,0,0,.5.25,4.32,4.32,0,0,0,3.46-.68,9.78,9.78,0,0,0,2.51-2.62,2.56,2.56,0,0,1,.86-.87c1.63-.79.84,1.95.71,2.59a27.81,27.81,0,0,1-1.54,5.3c-.41,1.34-3.73,4.42-4.5,5.66s-.73,2.68-.12,3.24,1.91-.28,3.5-1.86a32.54,32.54,0,0,0,3.33-3.3c.6-.9,1.24-1.81,1.24-1.81a19.61,19.61,0,0,1-1.29,3.24c-.58.91-2.79,3.19-3.48,4.32a2.51,2.51,0,0,0,.27,2.83c.4.43.61,1.09,2.72-1.06a32.63,32.63,0,0,0,2.94-3.27,3.14,3.14,0,0,0,3.09-1,31.05,31.05,0,0,0,3.28-4.78,4.36,4.36,0,0,0,2.62-2.22c.86-1.78,2-4.6,2.8-6.89s.34-8.08.76-12.09c.13-1.24,1.32-15.13,1.88-23.79.42-6.46.07-13.84-.7-17.18-1.83-7.88-1.7-6.9-4.59-17.79-1.87-7-3.38-12.07-4.62-15.45-1.91-5.19-3.12-7.51-10.59-10.22-4.11,3.29-5.62,11.41-3,26.84a151.53,151.53,0,0,0,7.55,21.47s1.11,33.59,1.09,34.19a3.23,3.23,0,0,1-1.31,2.78c-.87.77-1.88,1.38-2.72,2.19-2.74,2.64-3.31,6.92-5.84,9.75Z" style="fill:#ffa8a7"></path><path d="M216,234.63a20.77,20.77,0,0,0,3-4.71,24.92,24.92,0,0,0,1.83-5.29c-.68,1.74-1.35,3.47-2.17,5.13A42,42,0,0,1,216,234.63Z" style="fill:#f28f8f"></path><path d="M222.37,228.85a10.12,10.12,0,0,0,1.42-2.41,12.58,12.58,0,0,0,.82-2.68c-.44.83-.78,1.69-1.16,2.53Z" style="fill:#f28f8f"></path><path d="M214.84,228.57a25.53,25.53,0,0,0,2.3-4.25,10.22,10.22,0,0,1-2.82,5.78Z" style="fill:#f28f8f"></path></g><path d="M209.52,122.64c6.53,1.14,9.26,3.75,10.95,6.45,2.05,3.29,3,7.22,6.72,20s4.9,18.29,5,21a115.52,115.52,0,0,1-.48,16.24c-.4,5.48-1.32,12.53-2.34,20.85-3.78,1.47-12.56.8-14.42-1.68,0-5.63.1-11.15,0-17.52a150.32,150.32,0,0,0-1.17-15.68l-7.94-23.83S201.32,128.81,209.52,122.64Z" style="fill:#37474f"></path></g></g></g><g id="freepik--arm--inject-172"><path d="M213.15,160.22a4.58,4.58,0,0,0-2.53-1.08,30.62,30.62,0,0,0-4.49.12c-2.29,0-6.88-.27-8.89-1.44-.41-.24-1.18-.86-.34-1.08,1.1-.29,2.32-.51,3.45-.85s2.69-1,3-2.08a1.52,1.52,0,0,0,0-1c-.13-.3-.29-.36-.91-.33-.41,0-.81.06-1.22.07l-2.51.1a37.7,37.7,0,0,0-15.23,4c-2.26,1.22-22,12.42-22,12.42s-8.84-12.62-14.11-20.18c-5.56-8-8.73-8.44-12.39-9.36l1.2,25.78s17.59,24.9,21.19,25.29c2.95.33,5.26-1,11.87-6.2s15.46-13.67,16.26-14.18c2.12-1.36,4-.54,5.49-.27a22.16,22.16,0,0,0,6.19.43,20.38,20.38,0,0,0,5.37-.83,6.31,6.31,0,0,0,2.43-1c.52-.51.76-1.25,1.36-1.72a23,23,0,0,0,2.19-1.36,8,8,0,0,0,1.06-1.72,3.39,3.39,0,0,1,2.39-1.44,3.24,3.24,0,0,0,1.35-.55C213.9,161.2,213.61,160.65,213.15,160.22Z" style="fill:#ffbda7"></path><path d="M161.45,169.05a17.28,17.28,0,0,1,2.08,10.82c3.2-5.26-.23-11.87-.23-11.87Z" style="fill:#f0997a"></path><path d="M194.81,159.7a15.08,15.08,0,0,1-7.63,3.38,6.27,6.27,0,0,0,4.34,0A5.8,5.8,0,0,0,194.81,159.7Z" style="fill:#f0997a"></path></g><g id="freepik--character--inject-172"><g id="freepik--bottom--inject-172"><path d="M85.05,338.88a12.17,12.17,0,0,0-6.84,3.87c-2.49,3.16-8,12.64-9.09,13.7A7.88,7.88,0,0,0,71.58,359l3-3.34c.73-.6,1.93-2.11,1.9-.15s-.27,3.8-.56,7.6c-.18,2.31-1,6.87,2.93,11.31,3.72,4.16,8.19,7,11,7.37,1.65.23,5.37-.11,5.19-3.4-.1-1.75-2.18-8.37-2.46-11.56S85.05,338.88,85.05,338.88Z" style="fill:#263238"></path><path d="M80.24,355.79A19.19,19.19,0,0,0,87,370.13c3.12,2.6,5.45,2,5.47-.95,0-4.77-.59-13.53,4.88-22.47,1.87-3.06,26.69-31.54,33.21-40S143,290.3,146.39,283.56l.5-1,0-.1h0c1.71-3.54,2.65-6.58,2.49-8.86l-15.37.28-11.69-7.78a112.6,112.6,0,0,1-8.17,18.39c-7.49,6.58-13.76,12.93-18.77,29.92-3.4,11.51-7.06,18.92-7.9,20.3s-2.59,4.34-3.15,5.05C81.15,343.87,80.28,344.32,80.24,355.79Z" style="fill:#ffbda7"></path><path d="M114.19,284.52c-4.71,4.14-8.93,8.18-12.67,14.84l.85,41.09c6.28-7.54,16.94-20,23.66-28.1.28-3.55.69-7.89,1.29-12.51a114.35,114.35,0,0,0,.1-30.34l-5.06-3.37A112.6,112.6,0,0,1,114.19,284.52Z" style="fill:#f0997a"></path><path d="M104,360.22a13.36,13.36,0,0,0-3.64,7.5c-.37,4.32.14,16.11-.2,17.71a7.38,7.38,0,0,0,3.48.89l.66-4.74c.29-1,.19-1.75,1.23,0s1.9,3.8,3.53,6.41c1.29,2.07,3.07,6.93,8.83,8.62,5.37,1.58,11.62,1,14.16-.25,1.52-.76,4.22-1.94,2.28-4.81-1-1.53-6.91-7.7-8.88-10.42S104,360.22,104,360.22Z" style="fill:#263238"></path><path d="M118.6,360.08c-.27-11.28,10.35-62.87,7.48-87.11l-30.28-.36A131.42,131.42,0,0,1,98.93,294c.49,6.59-1.62,21.67,1.46,38,2.39,12.67,3.38,21.29,3.42,23s.18,5.45.1,6.41c-.49,5.57.36,8.74,6.48,17.58,1.19,1.7,4,7.22,12.24,8.29,4,.52,5.68-1.35,4.08-4.06C124.14,378.92,118.87,371.36,118.6,360.08Z" style="fill:#ffbda7"></path><path d="M98.93,294c.06,2.56-.09,5.12-.23,7.67s-.24,5.12-.31,7.68a123.58,123.58,0,0,0,.55,15.39c.27,2.55.69,5.09,1.15,7.61l1.4,7.52c.45,2.51.88,5,1.27,7.55s.81,5.05,1,7.59a150.1,150.1,0,0,0-1.73-15.25c-.74-5.07-1.91-10-2.36-15.12-.31-2.53-.46-5.07-.59-7.62s-.12-5.1-.15-7.66,0-5.11.1-7.67S99.17,296.57,98.93,294Z" style="fill:#f0997a"></path></g><g id="freepik--top--inject-172"><g id="freepik--Hair--inject-172"><path d="M124.32,118.21l.62-.43a84.37,84.37,0,0,0,7.43-5.35c1.43-1.25,3.65-2.62,4.82-4.12,5.07-6.41,3.82-11.61,1.47-15.13C133.23,85,123.81,83.37,117.9,84c-11.2,1.21-16.15,5-16.35,11-3,.44-5,3-6,5.84-1.45,4-1,7.67.87,11.61s4.66,7,7.48,10.13l5.91,6.56c2.32-2,4.64-4.11,7.14-5.94S121.86,119.87,124.32,118.21Z" style="fill:#37474f"></path><path d="M122.73,97.67s.47-3.3,2.22-5c2-1.9,5.24-2.28,7.6-1.67a10.25,10.25,0,0,1,6,4.34,9.67,9.67,0,0,1,1.52,4.62c.33,4.57-3.32,9.5-5.85,13-3.92,5.33-11.6,12.57-11.6,12.57Z" style="fill:#263238"></path></g><path d="M147.44,206.35c-1.59-8.11-4.4-18.71-4.4-18.71l1.82-10c7.58-4.94,9.81-16.64,1.64-26.12a148,148,0,0,0-11.55-12l-7.41-1.89s-20.43.65-22.34,1.18l-8.47,1.59c-3.19,1.51-11.44,4-7.16,21.78,2.09,8.72,5.75,18.07,6.88,25.47.73,4.81-6.23,9.77-9.91,22.52-4.09,13.32-2.59,34.6.28,45.81s1.64,24.59,0,31.69c2.73,3.55,16.34,10.79,34.9,10.2,26.86-.86,33.93-10.07,33.93-10.07s.12-15.17-.56-26.63S151,218.3,147.44,206.35Z" style="fill:#FFFFFF"></path><path d="M129.29,176c-8.47,6-19.74,3.74-24.31-5.14C105.81,182.89,122,185.91,129.29,176Z" style="opacity:0.1"></path><g id="freepik--head--inject-172"><path d="M124.4,132s0,.82,0,2.26c0,1,0,2.4,3.12,3.33.78.92,9.87,7.81.22,9-14.58,1.74-22.65-6.17-23.54-7.59,2.58-.45,2.68-1.93,2.74-5.68s-.2-12.28-.2-12.28c-.07.7-3.41,2.66-6.48-.88s-2.73-8.77-.52-10.85c3.42-3.2,8.34-.39,8.92,4.16,2.6,1.4,3.52-1.84,1.82-5.55.73-.5,3.33-.59,3.12-7.14.35-3.26,5.29-5.51,9.11-3.07a7.56,7.56,0,0,1,11.6,1.9c1.71,3.79,2.07,3.79,1.61,8.54-.16,1.67.7,4.19.83,6.42.58,9.9-2.45,14.15-5.58,15.87-2.09,1.15-3.09,1.6-6.79,1.6" style="fill:#ffbda7"></path><path d="M134.29,106.82l-4.06-1a2,2,0,0,1,2.44-1.59A2.2,2.2,0,0,1,134.29,106.82Z" style="fill:#263238"></path><path d="M121.76,120.39l5.35,1a2.62,2.62,0,0,1-3.1,2.21A2.87,2.87,0,0,1,121.76,120.39Z" style="fill:#b16668"></path><path d="M124,123.64a2.64,2.64,0,0,0,1.12,0,3.67,3.67,0,0,0-3.31-2.07A2.85,2.85,0,0,0,124,123.64Z" style="fill:#f28f8f"></path><path d="M116,107.8l4-1.53a2,2,0,0,0-2.67-1.26A2.23,2.23,0,0,0,116,107.8Z" style="fill:#263238"></path><path d="M121,110.6a1.74,1.74,0,1,1-1.73-1.73A1.73,1.73,0,0,1,121,110.6Z" style="fill:#263238"></path><circle cx="131.69" cy="109.92" r="1.73" style="fill:#263238"></circle><polygon points="131.53 115.94 126.21 117.86 124.84 107.97 131.53 115.94" style="fill:#f0997a"></polygon><path d="M124.4,132A19.69,19.69,0,0,1,113.78,129a12.93,12.93,0,0,1-3.89-4.75s-.32,3.3,3.39,6.63c4.31,3.85,11.14,3.43,11.14,3.43Z" style="fill:#f0997a"></path></g></g><g id="freepik--arm--inject-172"><path d="M93.76,234.89c-2.31-2.91-2.61-7.13-5.14-9.88-.77-.84-1.72-1.5-2.53-2.3a3.12,3.12,0,0,1-1.11-2.8c0-.58,3.07-33.36,3.07-33.36L95.33,169c4.18-8.72,4.08-24.06,1.4-28.61-8.18,1.69-11.81,3.6-14,8.57a98.88,98.88,0,0,0-4.89,13.31c-3.18,10.1-3.12,9.77-5.37,17.37-.95,3.22-1.59,5.39-1.23,16.47.28,8.49.86,23.71.92,24.93.17,3.94.13,7.49.6,12.08a25.73,25.73,0,0,0,1.76,6.69A4.27,4.27,0,0,0,77,242.13,30,30,0,0,0,79.9,247a3,3,0,0,0,3,1.16,33.38,33.38,0,0,0,2.68,3.37c1.95,2.22,2.19,1.6,2.6,1.2a2.46,2.46,0,0,0,.43-2.76c-.6-1.14-2.63-3.5-3.14-4.42a18.84,18.84,0,0,1-1.07-3.24s.57.92,1.1,1.84a33.37,33.37,0,0,0,3.06,3.42c1.47,1.64,2.68,2.54,3.32,2s.75-1.93.07-3.18-3.74-4.46-4.07-5.8a27.59,27.59,0,0,1-1.2-5.27c-.08-.64-.7-3.36.85-2.5a2.33,2.33,0,0,1,.79.91,9.65,9.65,0,0,0,2.3,2.7,4.21,4.21,0,0,0,3.35.87,1,1,0,0,0,.5-.21,1,1,0,0,0,.18-1.07,3.84,3.84,0,0,0-.67-.94Z" style="fill:#ffbda7"></path><path d="M82.86,248.16a20.38,20.38,0,0,1-2.67-4.78,23.84,23.84,0,0,1-1.48-5.28c.56,1.74,1.12,3.47,1.82,5.14A41.66,41.66,0,0,0,82.86,248.16Z" style="fill:#f0997a"></path><path d="M77,242.13a9.39,9.39,0,0,1-1.25-2.44,12.16,12.16,0,0,1-.65-2.66c.38.83.67,1.69,1,2.54Z" style="fill:#f0997a"></path><path d="M84.36,242.31a24.53,24.53,0,0,1-2-4.3,9.94,9.94,0,0,0,2.42,5.82Z" style="fill:#f0997a"></path></g></g><path id="freepik--Hand--inject-172" d="M79.21,151.61c0,.39-.1.78-.12,1.16a1.14,1.14,0,0,0,1,1.34,2,2,0,0,0,1.16-.23,6,6,0,0,0,1-.68,10.66,10.66,0,0,1-.08,1.78.77.77,0,0,0,0,.45.73.73,0,0,0,.51.33,3,3,0,0,0,2.35-.48,4,4,0,0,0,1.43-2,2.93,2.93,0,0,0,2.55.19,2.39,2.39,0,0,0,.84-1,12.7,12.7,0,0,0,.67-2,8.94,8.94,0,0,0,.53-2.2,7.13,7.13,0,0,1,.48-1.57A6.89,6.89,0,0,1,92.88,145c.77-.85,1.56-1.67,2.37-2.47.65-.64,1.32-1.51,2.33-1.48a.56.56,0,0,1,.36.1c.24.18.17.55.06.83a17,17,0,0,1-1.77,3.21A6.54,6.54,0,0,0,95,148.39a1.38,1.38,0,0,0,.54,1.28c.85.45,1.52-.54,2.12-.95s1.33-.95,2-1.47,1.3-1,1.9-1.62a16.77,16.77,0,0,0,3.08-4.21,23.69,23.69,0,0,0,1.11-2.4,7.89,7.89,0,0,0,.75-2.19.28.28,0,0,0,0-.22.28.28,0,0,0-.17-.11,4.37,4.37,0,0,0-1.49-.12c-.78,0-1.56-.06-2.33-.07a31.39,31.39,0,0,0-4.65.16c-1.19.14-2.44.68-3.65.53a29.61,29.61,0,0,1-3.06-.62c-1-.23-.45-1.46-1.38-.94-1.48.81-2.94,1.63-4.4,2.46s-2.8,1.23-3.62,2.63a9.5,9.5,0,0,0-1,2.64c-.57,2.29-1,4.63-1.31,7C79.37,150.62,79.28,151.12,79.21,151.61Z" style="fill:#ffa8a7"></path></g></g></svg>
