<svg xmlns="http://www.w3.org/2000/svg" viewBox="0 0 750 500"><g id="freepik--Wallet--inject-69"><rect x="225.76" y="237.26" width="290.61" height="210.91" rx="17.44" style="fill:#23C0C9"></rect><path d="M516.37,254.7s0-.21,0-.63a14.13,14.13,0,0,0-.18-1.87,17.06,17.06,0,0,0-2.56-6.83,18.19,18.19,0,0,0-3.56-4.05,17.64,17.64,0,0,0-5.69-3.12c-.56-.19-1.15-.3-1.74-.47s-1.22-.19-1.85-.29l-1.93-.09H488.08l-104.27.08-72,0-40.12,0H245.38a27.61,27.61,0,0,0-5.31.3,17.06,17.06,0,0,0-9.26,5,16.77,16.77,0,0,0-3.07,4.41,16.3,16.3,0,0,0-1.56,5.17,43.53,43.53,0,0,0-.17,5.5V286q0,22.86,0,46.63v98A17.31,17.31,0,0,0,230.29,442a17,17,0,0,0,10.59,5.71,52.5,52.5,0,0,0,6.16.17H405.2l82.65,0h9.62a24.34,24.34,0,0,0,4.69-.31,17.21,17.21,0,0,0,4.39-1.48,18.76,18.76,0,0,0,2-1.14,20.81,20.81,0,0,0,1.8-1.42,17.07,17.07,0,0,0,5.77-11.88c.1-12,0-23.54.06-34.54,0-44,.07-79.64.09-104.26,0-12.31,0-21.86.05-28.35,0-3.23,0-5.7,0-7.37s0-2.51,0-2.51,0,.85,0,2.51,0,4.14,0,7.37c0,6.49,0,16,.05,28.35,0,24.62,0,60.24.08,104.26,0,11,.07,22.53,0,34.56a17.53,17.53,0,0,1-2.84,8.65,17.91,17.91,0,0,1-3,3.52,20,20,0,0,1-1.85,1.45,19.72,19.72,0,0,1-2,1.17,17.24,17.24,0,0,1-4.49,1.52,23.87,23.87,0,0,1-4.77.32h-9.62l-82.65,0-91.34,0H247a52.1,52.1,0,0,1-6.23-.18,17.44,17.44,0,0,1-10.91-5.87,17.84,17.84,0,0,1-4.4-11.67c0-33.59,0-66.37,0-98V286q0-11.42,0-22.6v-5.57a43.26,43.26,0,0,1,.18-5.57,16.68,16.68,0,0,1,1.61-5.31,17.05,17.05,0,0,1,3.16-4.54,18.51,18.51,0,0,1,4.36-3.32,18,18,0,0,1,5.16-1.8l1.35-.21,1.35-.07c.91-.05,1.8,0,2.69,0h66.43l72,0,104.27.09h10.73l1.95.1c.63.11,1.26.18,1.86.31s1.19.28,1.75.48a17.7,17.7,0,0,1,5.73,3.16,18.14,18.14,0,0,1,3.57,4.09,17,17,0,0,1,2.52,6.88,12.1,12.1,0,0,1,.16,1.88C516.37,254.49,516.37,254.7,516.37,254.7Z" style="fill:#263238"></path><path d="M506.19,250.26a17.44,17.44,0,0,1,6,0,17.44,17.44,0,0,1-6,0Z" style="fill:#263238"></path><path d="M481.71,250.26a72.16,72.16,0,0,1,12.24,0,72.16,72.16,0,0,1-12.24,0Z" style="fill:#263238"></path><path d="M457.24,250.26a72,72,0,0,1,12.23,0,72,72,0,0,1-12.23,0Z" style="fill:#263238"></path><path d="M432.76,250.26a72.16,72.16,0,0,1,12.24,0,72.16,72.16,0,0,1-12.24,0Z" style="fill:#263238"></path><path d="M408.29,250.26a72,72,0,0,1,12.23,0,72,72,0,0,1-12.23,0Z" style="fill:#263238"></path><path d="M383.81,250.26a72.16,72.16,0,0,1,12.24,0,72.16,72.16,0,0,1-12.24,0Z" style="fill:#263238"></path><path d="M359.34,250.26a72,72,0,0,1,12.23,0,72,72,0,0,1-12.23,0Z" style="fill:#263238"></path><path d="M334.86,250.26a72.16,72.16,0,0,1,12.24,0,72.16,72.16,0,0,1-12.24,0Z" style="fill:#263238"></path><path d="M310.38,250.26a72.16,72.16,0,0,1,12.24,0,72.16,72.16,0,0,1-12.24,0Z" style="fill:#263238"></path><path d="M285.91,250.26A36.7,36.7,0,0,1,292,250a36.7,36.7,0,0,1,6.12.26,35.45,35.45,0,0,1-6.12.26A35.45,35.45,0,0,1,285.91,250.26Z" style="fill:#263238"></path><path d="M261.43,250.26a36.7,36.7,0,0,1,6.12-.26,36.7,36.7,0,0,1,6.12.26,35.45,35.45,0,0,1-6.12.26A35.45,35.45,0,0,1,261.43,250.26Z" style="fill:#263238"></path><path d="M243.2,256.26a34,34,0,0,1-.26-6l.26-.26h2.33l1.91.06a6.41,6.41,0,0,1,1.76.18,6.14,6.14,0,0,1-1.76.19l-1.91.05-1.12,0H243.2l.26-.26A35.22,35.22,0,0,1,243.2,256.26Z" style="fill:#263238"></path><path d="M243.2,278.69a29.81,29.81,0,0,1-.26-5.61,29.75,29.75,0,0,1,.26-5.6,30.79,30.79,0,0,1,.26,5.6A30.86,30.86,0,0,1,243.2,278.69Z" style="fill:#263238"></path><path d="M243.2,301.12a60.55,60.55,0,0,1,0-11.21,60.55,60.55,0,0,1,0,11.21Z" style="fill:#263238"></path><path d="M243.2,323.55a60.65,60.65,0,0,1,0-11.22,60.65,60.65,0,0,1,0,11.22Z" style="fill:#263238"></path><path d="M243.2,346a60.65,60.65,0,0,1,0-11.22,60.65,60.65,0,0,1,0,11.22Z" style="fill:#263238"></path><path d="M243.2,368.4a60.55,60.55,0,0,1,0-11.21,60.55,60.55,0,0,1,0,11.21Z" style="fill:#263238"></path><path d="M243.2,390.83a60.55,60.55,0,0,1,0-11.21,60.55,60.55,0,0,1,0,11.21Z" style="fill:#263238"></path><path d="M243.2,413.26a60.55,60.55,0,0,1,0-11.21,60.55,60.55,0,0,1,0,11.21Z" style="fill:#263238"></path><path d="M249.2,430.48a35.32,35.32,0,0,1-6,.26c-.52-.52-.15-.15-.26-.27h0v-1.19c0-.39,0-.76,0-1.13,0-.66,0-1.29,0-1.91a5.63,5.63,0,0,1,.19-1.75,6.3,6.3,0,0,1,.18,1.75c0,.62,0,1.25.06,1.91,0,.37,0,.74,0,1.13,0,.19,0,.39,0,.59v.6h0c-.12-.11.26.27-.26-.25A34.12,34.12,0,0,1,249.2,430.48Z" style="fill:#263238"></path><path d="M273.32,430.48a35.64,35.64,0,0,1-6,.26,35.64,35.64,0,0,1-6-.26,34.43,34.43,0,0,1,6-.26A34.43,34.43,0,0,1,273.32,430.48Z" style="fill:#263238"></path><path d="M297.44,430.48a35.64,35.64,0,0,1-6,.26,35.64,35.64,0,0,1-6-.26,34.43,34.43,0,0,1,6-.26A34.43,34.43,0,0,1,297.44,430.48Z" style="fill:#263238"></path><path d="M321.56,430.48a70.05,70.05,0,0,1-12.06,0,70.05,70.05,0,0,1,12.06,0Z" style="fill:#263238"></path><path d="M345.68,430.48a70.05,70.05,0,0,1-12.06,0,70.05,70.05,0,0,1,12.06,0Z" style="fill:#263238"></path><path d="M369.8,430.48a70.05,70.05,0,0,1-12.06,0,70.05,70.05,0,0,1,12.06,0Z" style="fill:#263238"></path><path d="M393.92,430.48a70.05,70.05,0,0,1-12.06,0,70.05,70.05,0,0,1,12.06,0Z" style="fill:#263238"></path><path d="M418,430.48a70.05,70.05,0,0,1-12.06,0,70.05,70.05,0,0,1,12.06,0Z" style="fill:#263238"></path><path d="M442.16,430.48a70.05,70.05,0,0,1-12.06,0,70.05,70.05,0,0,1,12.06,0Z" style="fill:#263238"></path><path d="M466.28,430.48a70.05,70.05,0,0,1-12.06,0,70.05,70.05,0,0,1,12.06,0Z" style="fill:#263238"></path><path d="M490.41,430.48a70.05,70.05,0,0,1-12.06,0,70.05,70.05,0,0,1,12.06,0Z" style="fill:#263238"></path><path d="M508.47,430.48a17.44,17.44,0,0,1-6,0,17.44,17.44,0,0,1,6,0Z" style="fill:#263238"></path><g style="opacity:0.30000000000000004"><path d="M326,354.24s.06,10-3,16-4,8.38-10.4,10.7-86.92,11.17-86.92,11.17V364.94Z"></path></g><g style="opacity:0.30000000000000004"><path d="M324.59,316.54s.92-10.21-24.69-14c-29.29-4.33-74.14-9.65-74.14-9.65V312.2Z"></path></g><rect x="214.11" y="307.28" width="111.93" height="65.92" rx="14.31" style="fill:#23C0C9"></rect><path d="M228.42,373.19s-.29,0-.85,0a12.94,12.94,0,0,1-2.49-.34,13.79,13.79,0,0,1-3.81-1.48,14.17,14.17,0,0,1-4.21-3.63,14.35,14.35,0,0,1-2.85-6.35,20.83,20.83,0,0,1-.24-4c0-1.38,0-2.82,0-4.31,0-5.95,0-12.72,0-20.21,0-3.75,0-7.66,0-11.76a14.48,14.48,0,0,1,5.74-11.1,14.14,14.14,0,0,1,6.19-2.72,18.25,18.25,0,0,1,3.46-.24h18l64.44,0a14.5,14.5,0,0,1,11.32,5.4,14.41,14.41,0,0,1,3.18,7.75c.11,1.41.07,2.78.08,4.15q0,4.11,0,8.15v15.87c0,2.59,0,5.16,0,7.69,0,1.28.05,2.52,0,3.8a15,15,0,0,1-.23,1.89,18.81,18.81,0,0,1-.5,1.82A14.57,14.57,0,0,1,315.08,373a17.32,17.32,0,0,1-1.75.31c-.59.05-1.18.07-1.77.09H301.41l-24.5,0-35.48-.09-9.65-.05-2.5,0-.86,0s.29,0,.86,0l2.5,0,9.65-.05,35.48-.08,24.5,0h6.71c2.28-.06,4.61.19,6.85-.4a14.11,14.11,0,0,0,10.08-9.18c.86-2.31.74-4.82.74-7.36v-7.69c0-5.18,0-10.48,0-15.87v-8.15c0-1.37,0-2.76-.07-4.1a14.07,14.07,0,0,0-3.07-7.48,15.52,15.52,0,0,0-3-2.79,15.21,15.21,0,0,0-3.75-1.79,15.58,15.58,0,0,0-4.13-.62l-64.44,0h-18a18.11,18.11,0,0,0-3.39.23,13.76,13.76,0,0,0-6,2.62,14.08,14.08,0,0,0-5.6,10.77c-.05,4.07,0,8,0,11.75,0,7.49,0,14.26,0,20.21,0,1.49,0,2.93,0,4.31a21.12,21.12,0,0,0,.22,3.95,14.3,14.3,0,0,0,10.64,11.4,13.57,13.57,0,0,0,2.47.38Z" style="fill:#263238"></path><circle cx="292.32" cy="342.72" r="23.96" style="fill:#263238"></circle><path d="M298.46,362.29a25.34,25.34,0,0,0,5.72-3,20.7,20.7,0,0,0,4.84-5A18.78,18.78,0,0,0,311.61,338a20.35,20.35,0,0,0-3.06-6.25,24.78,24.78,0,0,0-4.5-4.62s.15.06.39.22a12,12,0,0,1,1.07.75,18.24,18.24,0,0,1,3.34,3.43,20.27,20.27,0,0,1,3.22,6.33,18.83,18.83,0,0,1-2.66,16.7,20.25,20.25,0,0,1-5,5,17.73,17.73,0,0,1-4.24,2.21,10.58,10.58,0,0,1-1.24.39A1.26,1.26,0,0,1,298.46,362.29Z" style="fill:#fafafa"></path></g></svg>